<?xml version="1.0" standalone="no"?>
<!DOCTYPE svg PUBLIC "-//W3C//DTD SVG 20010904//EN"
 "http://www.w3.org/TR/2001/REC-SVG-20010904/DTD/svg10.dtd">
<svg version="1.0" xmlns="http://www.w3.org/2000/svg"
 width="1080.000000pt" height="1080.000000pt" viewBox="0 0 1080.000000 1080.000000"
 preserveAspectRatio="xMidYMid meet">
<metadata>
Created by potrace 1.11, written by Peter Selinger 2001-2013
</metadata>
<g transform="translate(0.000000,1080.000000) scale(0.100000,-0.100000)"
fill="#000000" stroke="none">
<path d="M7831 10204 c0 -11 3 -14 6 -6 3 7 2 16 -1 19 -3 4 -6 -2 -5 -13z"/>
<path d="M7828 10173 c-10 -2 -18 -9 -18 -14 0 -5 -7 -9 -15 -9 -8 0 -15 5
-15 11 0 8 -4 8 -15 -1 -8 -6 -19 -9 -24 -5 -6 3 -24 -1 -41 -10 -24 -12 -35
-13 -51 -4 -14 7 -19 7 -15 0 8 -13 -38 -26 -55 -15 -7 4 -9 3 -6 -3 4 -6 -5
-14 -19 -17 -15 -4 -33 -14 -41 -21 -21 -21 -33 -18 -34 8 l-1 22 -7 -23 c-7
-28 -80 -59 -92 -40 -4 6 -11 8 -17 4 -6 -3 -13 -2 -17 4 -4 6 -15 2 -28 -10
-12 -11 -27 -18 -33 -16 -6 2 -17 -6 -24 -20 -8 -13 -17 -24 -22 -24 -5 0 -21
-11 -35 -25 -18 -16 -34 -23 -48 -19 -17 4 -27 -4 -48 -35 -15 -23 -34 -41
-43 -41 -10 0 -14 -6 -11 -15 5 -11 1 -12 -19 -5 -35 14 -35 13 -29 -17 4 -22
2 -21 -8 6 -15 39 -23 33 -22 -16 0 -17 -3 -29 -7 -27 -4 3 -8 11 -8 18 0 8
-7 19 -15 26 -20 16 -20 1 0 -46 21 -52 4 -67 -70 -60 -31 3 -53 1 -51 -3 9
-14 -35 -53 -55 -48 -10 3 -20 -1 -23 -9 -3 -8 -12 -14 -19 -14 -21 0 -142
-66 -145 -79 -1 -6 -16 -25 -32 -43 -32 -33 -36 -43 -20 -53 7 -4 -2 -19 -20
-38 -16 -17 -32 -39 -36 -49 -3 -10 -9 -18 -14 -18 -4 0 -18 -21 -30 -47 -22
-46 -22 -48 -5 -80 10 -18 21 -33 25 -33 14 0 21 -50 10 -71 -6 -11 -8 -33 -5
-50 5 -22 12 -29 31 -29 14 0 23 -4 20 -8 -3 -5 0 -26 5 -48 12 -46 52 -74
105 -74 19 0 34 -4 34 -10 0 -5 9 -10 21 -10 14 0 18 4 12 13 -21 34 -5 68 27
60 15 -4 20 0 20 16 0 11 5 21 11 21 6 0 9 -7 5 -15 -3 -8 -1 -25 4 -37 9 -23
9 -23 10 2 1 16 4 20 7 10 3 -8 9 -17 13 -20 11 -8 42 -286 40 -360 -3 -95 4
-151 21 -164 24 -18 42 -73 35 -103 -4 -16 -18 -56 -32 -90 -14 -36 -24 -82
-24 -111 0 -43 4 -54 28 -72 23 -19 36 -21 83 -17 l56 5 12 -53 c7 -30 19 -59
27 -65 7 -7 14 -18 14 -24 0 -6 9 -17 20 -24 11 -7 20 -23 20 -38 0 -13 11
-36 25 -50 14 -14 25 -31 25 -39 0 -8 4 -16 9 -20 6 -3 4 -20 -5 -41 -14 -32
-14 -40 0 -68 36 -71 117 -130 186 -135 25 -1 49 -5 54 -8 15 -10 150 -2 162
8 7 6 24 7 38 3 16 -4 26 -2 26 5 0 6 7 8 15 5 8 -4 15 -1 15 5 0 15 82 14
115 -1 34 -15 32 -27 -15 -73 -22 -21 -40 -45 -40 -51 0 -7 -19 -26 -42 -41
-39 -26 -43 -33 -40 -63 2 -19 12 -51 23 -72 12 -24 19 -58 19 -95 0 -59 20
-200 39 -286 12 -50 -2 -132 -20 -121 -5 3 -6 -1 -4 -8 3 -7 -6 -51 -20 -97
-14 -47 -25 -94 -25 -105 0 -12 -4 -26 -8 -33 -4 -6 -7 6 -7 28 0 21 3 39 8
39 4 0 7 6 6 13 -2 6 5 36 14 66 22 72 21 85 -3 36 l-20 -40 6 40 c3 22 8 44
11 48 3 5 6 31 7 58 2 68 -16 44 -21 -27 -2 -32 -6 -60 -9 -63 -4 -3 -4 6 -2
22 3 15 1 27 -4 27 -5 0 -7 4 -4 9 3 4 -3 16 -13 25 -15 14 -18 31 -17 103 2
86 -16 191 -27 163 -3 -9 -6 -2 -8 15 -1 17 -5 -27 -9 -97 -3 -70 -8 -130 -11
-132 -2 -2 -22 -6 -44 -8 -38 -3 -40 -1 -43 26 -2 16 2 32 9 37 8 4 10 12 5
16 -5 4 -11 2 -13 -4 -3 -7 -18 -13 -34 -13 l-29 0 0 80 0 80 -40 0 -40 0 0
40 0 40 -76 0 c-91 0 -104 9 -105 77 -1 40 -2 43 -8 18 -3 -18 -15 -34 -29
-40 -15 -7 -22 -18 -22 -37 0 -26 3 -28 40 -28 l40 0 0 -66 0 -66 -80 4 c-73
3 -80 2 -80 -16 0 -10 7 -24 14 -30 8 -6 18 -23 21 -37 5 -21 1 -27 -20 -37
-29 -14 -91 -16 -99 -4 -10 16 10 31 49 35 l40 4 -42 1 c-36 2 -43 5 -43 22 0
16 -7 20 -30 20 -16 0 -30 -4 -30 -10 0 -5 11 -10 25 -10 18 0 25 -5 25 -20 0
-14 -7 -20 -24 -20 -13 0 -26 -5 -28 -11 -2 -6 -25 -13 -51 -16 -26 -3 -47
-11 -47 -17 0 -7 -22 -11 -59 -11 -64 0 -80 -7 -63 -28 13 -16 6 -27 -17 -27
-28 0 -97 -23 -83 -27 6 -3 10 -9 6 -14 -8 -14 -24 -11 -24 6 0 12 -14 15 -77
13 -54 -2 -77 1 -80 10 -5 14 -80 17 -85 3 -1 -5 -41 -13 -87 -17 -62 -5 -82
-4 -77 5 4 6 3 11 -3 11 -5 0 -13 -9 -16 -20 -7 -21 -25 -28 -25 -10 0 6 -25
10 -55 10 -30 0 -55 -4 -55 -10 0 -5 -18 -10 -40 -10 -32 0 -40 -4 -40 -18 0
-14 -14 -21 -58 -31 -59 -13 -182 -12 -182 2 0 4 -18 7 -40 7 -22 0 -40 -4
-40 -10 0 -5 -18 -10 -40 -10 -22 0 -40 4 -40 9 0 5 -10 12 -22 16 -14 3 -18
8 -11 11 18 8 -7 44 -29 44 -13 0 -18 -8 -18 -30 0 -26 -4 -30 -28 -30 -16 0
-54 5 -86 11 -32 6 -61 7 -64 3 -4 -4 -1 -9 6 -11 26 -10 10 -23 -28 -23 -22
0 -40 5 -40 11 0 13 -58 69 -71 69 -5 0 -9 -4 -9 -10 0 -5 -18 -10 -40 -10
-22 0 -40 5 -40 10 0 6 -18 10 -40 10 -22 0 -40 4 -40 9 0 5 -60 7 -137 6
-123 -4 -143 -2 -181 16 -23 12 -46 28 -51 37 -8 15 -12 15 -37 2 -21 -12 -28
-12 -31 -2 -6 15 -43 16 -43 1 0 -8 -4 -8 -15 1 -8 6 -31 13 -52 14 -21 1 -49
7 -62 15 -17 9 -25 10 -30 2 -10 -15 -71 -3 -78 15 -3 8 -19 14 -36 14 -17 0
-51 10 -75 21 -36 18 -46 19 -53 8 -10 -16 -11 -15 -38 39 -12 23 -17 42 -11
42 17 0 11 26 -10 45 -20 18 -20 17 -20 -43 0 -66 -1 -68 -31 -51 -19 10 -20
12 -4 29 15 17 15 21 -5 59 -11 23 -16 41 -10 41 17 0 11 26 -10 45 -20 18
-20 17 -20 -35 0 -46 -2 -51 -15 -40 -9 7 -14 18 -12 24 2 6 -2 24 -11 40 -19
40 -19 134 2 174 11 21 13 32 5 32 -6 0 -9 6 -6 14 6 16 -11 36 -30 36 -10 0
-13 -22 -13 -86 l0 -87 -55 6 c-70 7 -71 6 -74 -93 -1 -30 -5 -50 -9 -44 -4 6
-16 14 -27 18 -16 5 -21 1 -22 -16 -1 -11 -8 -25 -15 -29 -19 -12 0 -11 23 1
11 7 19 7 19 1 0 -5 -6 -12 -12 -14 -10 -4 -10 -8 0 -15 11 -8 11 -10 -2 -15
-8 -3 -16 -2 -18 4 -2 5 -11 0 -21 -12 -18 -20 -18 -21 4 -14 l22 7 -22 -30
c-17 -24 -19 -33 -9 -39 12 -7 38 -55 38 -70 0 -3 -9 6 -20 20 -11 14 -20 28
-20 31 0 3 -12 17 -26 31 -23 23 -24 27 -10 41 9 8 16 21 15 27 0 9 -2 9 -5 0
-4 -8 -11 -6 -25 8 -25 25 -24 29 4 29 25 0 67 26 67 41 0 5 -18 9 -40 9 l-40
0 20 36 c11 19 28 46 37 60 15 23 14 26 -3 45 -15 17 -20 43 -25 128 -4 67
-14 128 -27 166 -16 49 -19 77 -16 153 5 90 4 93 -26 136 -16 25 -30 51 -30
59 0 25 -11 47 -21 42 -4 -3 -4 -17 1 -30 6 -16 6 -25 0 -25 -8 0 -35 76 -32
90 0 3 -8 6 -19 6 -16 0 -18 -2 -7 -11 8 -5 17 -18 21 -28 4 -10 -25 13 -64
52 -39 39 -80 73 -91 77 -11 3 -28 14 -39 25 -10 10 -38 22 -61 26 -42 7 -42
7 -13 14 26 6 23 7 -18 8 -29 1 -46 5 -42 11 8 14 -53 73 -93 89 -40 17 -124
10 -179 -14 -87 -39 -97 -45 -84 -45 20 0 80 19 114 37 54 28 152 16 198 -25
35 -31 36 -42 7 -43 -17 -1 -19 -2 -5 -6 9 -2 17 -14 17 -25 0 -14 -5 -18 -16
-14 -9 3 -18 6 -20 6 -2 0 -4 12 -5 28 l-1 27 -8 -25 c-4 -14 -9 -22 -10 -17
-3 8 -3 9 -14 55 -7 31 -9 32 -21 15 -8 -11 -10 -20 -3 -24 5 -3 0 -9 -11 -12
-12 -3 -19 -1 -15 4 3 5 0 9 -5 9 -6 0 -11 8 -11 18 0 13 -2 14 -9 3 -7 -11
-11 -10 -20 5 -9 16 -10 16 -11 3 0 -19 -59 -33 -75 -18 -15 15 -28 10 -15 -5
10 -13 5 -14 -35 -11 -29 3 -44 1 -40 -5 3 -6 20 -10 37 -10 17 0 29 -2 26 -5
-2 -3 -54 -7 -114 -9 -60 -2 -102 -2 -94 1 8 2 22 7 30 10 8 3 20 7 26 8 18 4
110 55 99 55 -13 0 -101 -34 -142 -55 -18 -9 -38 -13 -44 -9 -8 4 -9 3 -5 -4
5 -8 -3 -12 -23 -12 -16 0 -57 -7 -90 -16 -34 -8 -71 -12 -84 -9 -15 4 -18 3
-9 -3 11 -7 10 -10 -3 -16 -9 -3 -28 -6 -41 -6 -15 0 -24 -6 -24 -15 0 -8 -8
-16 -17 -16 -10 -1 -22 -2 -28 -4 -5 -1 -14 -3 -20 -4 -5 -1 -3 -6 5 -12 12
-8 11 -9 -5 -5 -23 6 -50 -7 -42 -20 3 -5 -11 -10 -31 -11 -26 -1 -32 1 -22 7
13 8 12 10 -2 10 -19 0 -24 15 -8 25 5 3 7 12 4 20 -4 8 -10 12 -16 9 -5 -3
-7 -12 -4 -19 3 -8 0 -16 -7 -19 -9 -5 -9 -7 1 -12 6 -3 10 -9 7 -14 -3 -4 2
-13 11 -20 11 -10 18 -10 26 -2 7 7 16 12 22 12 5 0 -10 -17 -34 -37 -24 -21
-55 -51 -69 -66 -20 -22 -26 -25 -33 -13 -13 22 2 46 28 46 13 0 33 9 44 20
24 24 24 26 6 33 -8 3 -13 -1 -12 -11 1 -13 -9 -18 -44 -20 -36 -2 -41 0 -27
9 9 5 15 14 12 20 -4 5 5 13 19 19 37 14 32 32 -6 28 -20 -2 -32 -8 -31 -15 2
-7 -2 -13 -7 -13 -6 0 -19 -9 -30 -20 -17 -17 -18 -21 -5 -26 8 -3 12 -10 9
-15 -8 -13 -44 -11 -44 3 0 6 -3 8 -6 5 -4 -4 -1 -14 6 -22 12 -14 10 -14 -16
-5 -21 8 -52 8 -113 0 -53 -7 -136 -9 -223 -4 -101 5 -138 4 -138 -5 0 -7 27
-11 80 -11 73 0 80 -2 80 -20 0 -18 -7 -20 -80 -20 -47 0 -80 4 -80 10 0 6
-60 10 -160 10 -111 0 -160 -3 -160 -11 0 -15 -152 -1 -162 14 -5 8 -9 6 -14
-6 -8 -22 -33 -22 -50 1 -13 16 -13 16 -14 0 0 -15 -9 -18 -52 -18 -31 1 -61
7 -72 15 -28 21 -36 19 -36 -10 0 -14 -4 -25 -10 -25 -5 0 -10 14 -10 30 0 27
3 30 30 30 17 0 30 5 30 10 0 15 117 13 123 -2 2 -7 8 -9 13 -5 19 18 -27 27
-138 27 -98 0 -118 3 -118 15 0 11 -11 15 -40 15 -27 0 -40 4 -40 14 0 13 -11
14 -280 30 -30 1 -70 4 -87 4 -22 1 -33 7 -33 17 0 11 -11 15 -40 15 l-40 0 0
-3980 0 -3980 5400 0 5400 0 0 3680 0 3680 -70 0 c-38 0 -91 6 -117 13 -37 10
-47 10 -50 0 -5 -15 -83 -18 -83 -4 0 6 -63 8 -160 5 -88 -3 -228 -1 -312 5
-235 16 -353 16 -350 2 1 -6 -4 -14 -12 -17 -10 -4 -12 -16 -9 -44 5 -36 3
-41 -21 -50 -31 -11 -35 -31 -5 -23 14 4 25 0 31 -11 5 -9 16 -16 23 -16 8 0
15 -4 15 -10 0 -5 -4 -10 -10 -10 -5 0 -7 -7 -4 -15 4 -9 0 -15 -7 -15 -10 -1
-8 -5 4 -15 12 -9 17 -20 13 -33 -5 -13 -2 -19 6 -18 22 2 21 -18 -1 -26 -14
-5 -21 -3 -21 5 0 15 -82 181 -92 185 -5 2 -8 9 -8 15 0 7 -10 24 -23 38 -12
15 -33 41 -47 59 -58 76 -375 376 -426 403 -19 9 -34 22 -34 29 0 6 -13 32
-29 59 -17 26 -42 86 -57 133 -36 118 -50 134 -121 138 l-57 3 -18 73 c-9 40
-20 77 -23 82 -11 18 -34 184 -41 292 -6 91 -4 112 11 145 21 45 26 184 8 253
-32 128 -38 161 -25 169 9 5 7 18 -10 52 -27 57 -32 99 -9 92 10 -3 12 -2 5 4
-13 10 -27 46 -15 39 10 -6 -2 57 -18 97 -14 35 -14 58 -1 37 6 -9 10 -10 10
-3 0 7 -6 16 -13 20 -25 16 -47 63 -47 100 0 26 -8 45 -27 66 -21 22 -23 28
-10 24 17 -6 16 -3 -4 31 -12 20 -29 45 -37 54 -8 9 -11 21 -8 27 4 5 0 13 -7
18 -17 10 -47 66 -47 88 0 8 -5 15 -12 15 -6 0 -9 3 -5 6 3 3 -26 22 -65 42
-39 20 -73 43 -76 51 -14 37 -105 91 -153 91 -16 0 -29 5 -29 10 0 6 -12 10
-27 10 -22 0 -25 2 -13 10 16 10 21 10 -115 16 -38 1 -71 8 -73 13 -4 11 -14
12 -44 4z m-668 -242 c0 -10 -28 -41 -36 -41 -7 0 0 23 11 37 12 15 25 17 25
4z m-654 -635 c6 -27 -2 -49 -16 -41 -11 7 -10 65 1 65 5 0 11 -11 15 -24z
m64 5 c0 -6 -4 -12 -8 -15 -5 -3 -9 1 -9 9 0 8 4 15 9 15 4 0 8 -4 8 -9z m0
-65 c0 -2 -6 -9 -13 -15 -10 -8 -14 -7 -14 4 0 8 6 15 14 15 7 0 13 -2 13 -4z
m20 -30 c0 -2 -7 -7 -16 -10 -8 -3 -12 -2 -9 4 6 10 25 14 25 6z m-72 -59 c2
-40 -11 -62 -32 -54 -12 5 -14 12 -6 32 7 20 28 51 36 55 0 0 1 -15 2 -33z
m-3761 -1073 c-3 -3 -12 -4 -19 -1 -8 3 -5 6 6 6 11 1 17 -2 13 -5z m163 -4
c0 -5 -2 -10 -4 -10 -3 0 -8 5 -11 10 -3 6 -1 10 4 10 6 0 11 -4 11 -10z
m-123 -6 c-3 -3 -12 -4 -19 -1 -8 3 -5 6 6 6 11 1 17 -2 13 -5z m309 -39 c14
-13 13 -15 -5 -15 -12 0 -21 6 -21 15 0 8 3 15 6 15 3 0 12 -7 20 -15z m-49
-15 c3 -10 2 -11 -4 -4 -4 7 -17 14 -28 17 -16 5 -15 5 4 4 14 -1 26 -9 28
-17z m70 -16 c-3 -3 -12 -4 -19 -1 -8 3 -5 6 6 6 11 1 17 -2 13 -5z m-1350
-181 c-15 -16 -17 -16 -17 -1 0 9 6 18 13 21 20 7 22 -2 4 -20z m-47 -3 c0 -5
-4 -10 -10 -10 -5 0 -10 5 -10 10 0 6 5 10 10 10 6 0 10 -4 10 -10z m137 -22
c-3 -7 -5 -2 -5 12 0 14 2 19 5 13 2 -7 2 -19 0 -25z m-37 13 c0 -6 -4 -13
-10 -16 -5 -3 -10 1 -10 9 0 9 5 16 10 16 6 0 10 -4 10 -9z m1534 -26 c3 -8 1
-15 -4 -15 -6 0 -10 7 -10 15 0 8 2 15 4 15 2 0 6 -7 10 -15z m-1554 -41 c0
-8 -4 -14 -10 -14 -5 0 -10 9 -10 21 0 11 5 17 10 14 6 -3 10 -13 10 -21z
m1600 6 c0 -5 -7 -7 -15 -4 -8 4 -12 10 -9 15 6 11 24 2 24 -11z m-1523 -22
c-3 -7 -5 -2 -5 12 0 14 2 19 5 13 2 -7 2 -19 0 -25z m-290 0 c-3 -8 -6 -5 -6
6 -1 11 2 17 5 13 3 -3 4 -12 1 -19z m1843 -31 c0 -5 -4 -5 -10 -2 -5 3 -10
14 -10 23 0 15 2 15 10 2 5 -8 10 -19 10 -23z m-1635 13 c3 -5 -1 -10 -9 -10
-9 0 -16 5 -16 10 0 6 4 10 9 10 6 0 13 -4 16 -10z m-11 -44 c-6 -16 -24 -23
-24 -8 0 10 22 33 27 28 2 -2 1 -11 -3 -20z m-49 -26 c3 -5 1 -10 -4 -10 -6 0
-11 5 -11 10 0 6 2 10 4 10 3 0 8 -4 11 -10z m8015 -259 c0 -5 -18 -11 -40
-13 -28 -2 -40 0 -40 9 0 8 14 13 40 13 22 0 40 -4 40 -9z m237 -17 c-3 -3
-12 -4 -19 -1 -8 3 -5 6 6 6 11 1 17 -2 13 -5z m146 -1 c-13 -2 -33 -2 -45 0
-13 2 -3 4 22 4 25 0 35 -2 23 -4z m-423 -18 c0 -2 -9 -9 -20 -15 -16 -9 -20
-8 -20 5 0 8 9 15 20 15 11 0 20 -2 20 -5z m-2 -298 c13 -14 18 -27 13 -36 -6
-9 -10 -5 -15 14 -5 18 -12 25 -21 21 -9 -3 -15 1 -15 9 0 21 13 18 38 -8z
m-7988 -8 c7 -11 9 -23 6 -27 -3 -3 -6 0 -6 6 0 6 -7 18 -16 26 -8 9 -11 16
-5 16 6 0 15 -9 21 -21z m8020 -69 c0 -11 -2 -20 -4 -20 -2 0 -6 9 -9 20 -3
11 -1 20 4 20 5 0 9 -9 9 -20z m-6153 -32 c-3 -8 -6 -5 -6 6 -1 11 2 17 5 13
3 -3 4 -12 1 -19z m243 2 c0 -5 -5 -10 -11 -10 -5 0 -7 5 -4 10 3 6 8 10 11
10 2 0 4 -4 4 -10z m-256 -35 c-4 -8 -13 -15 -21 -15 -13 0 -13 3 -3 15 7 8
16 15 21 15 5 0 6 -7 3 -15z m3 -47 c-3 -8 -6 -5 -6 6 -1 11 2 17 5 13 3 -3 4
-12 1 -19z m493 -13 c0 -8 -6 -15 -14 -15 -20 0 -29 17 -14 23 22 9 28 7 28
-8z m-465 -64 c-6 -5 -25 10 -25 20 0 5 6 4 14 -3 8 -7 12 -15 11 -17z m1025
-61 c0 -5 -4 -10 -10 -10 -5 0 -10 5 -10 10 0 6 5 10 10 10 6 0 10 -4 10 -10z
m-1078 -137 c-12 -2 -20 -9 -17 -14 4 -5 2 -9 -3 -9 -6 0 -12 7 -16 15 -4 12
2 15 27 14 24 -1 26 -3 9 -6z m-11 -78 c-9 -30 -9 -30 -8 7 1 20 5 34 9 30 4
-4 3 -21 -1 -37z m-25 -55 c0 -12 -4 -16 -9 -11 -5 5 -6 14 -3 20 10 15 12 14
12 -9z m4056 -45 c-9 -24 -18 -43 -19 -41 -6 6 21 86 29 86 4 0 0 -20 -10 -45z
m-22 -70 c0 -8 -4 -15 -10 -15 -5 0 -7 7 -4 15 4 8 8 15 10 15 2 0 4 -7 4 -15z
m-4053 -87 c-3 -8 -6 -5 -6 6 -1 11 2 17 5 13 3 -3 4 -12 1 -19z m-420 -234
c-3 -3 -12 -4 -19 -1 -8 3 -5 6 6 6 11 1 17 -2 13 -5z m-50 -26 c-3 -8 -6 -5
-6 6 -1 11 2 17 5 13 3 -3 4 -12 1 -19z m238 -1298 c3 -5 1 -10 -4 -10 -6 0
-11 5 -11 10 0 6 2 10 4 10 3 0 8 -4 11 -10z"/>
<path d="M2788 8123 c7 -3 16 -2 19 1 4 3 -2 6 -13 5 -11 0 -14 -3 -6 -6z"/>
<path d="M2618 8083 c7 -3 16 -2 19 1 4 3 -2 6 -13 5 -11 0 -14 -3 -6 -6z"/>
<path d="M2087 7978 c2 -5 10 -8 18 -8 8 0 16 3 18 8 3 4 -5 7 -18 7 -13 0
-21 -3 -18 -7z"/>
<path d="M3260 7971 c0 -6 4 -13 10 -16 6 -3 7 1 4 9 -7 18 -14 21 -14 7z"/>
<path d="M860 7828 c0 -5 41 -8 90 -8 52 0 90 4 90 10 0 5 -37 9 -90 7 -49 -1
-90 -5 -90 -9z"/>
<path d="M1940 7820 c0 -5 5 -10 10 -10 6 0 10 5 10 10 0 6 -4 10 -10 10 -5 0
-10 -4 -10 -10z"/>
<path d="M3512 7550 c0 -14 2 -19 5 -12 2 6 2 18 0 25 -3 6 -5 1 -5 -13z"/>
<path d="M3487 7499 c4 -13 8 -18 11 -10 2 7 -1 18 -6 23 -8 8 -9 4 -5 -13z"/>
<path d="M7660 7487 c-22 -9 -23 -11 -6 -14 10 -3 23 0 29 6 16 16 5 20 -23 8z"/>
<path d="M7565 7480 c27 -12 43 -12 25 0 -8 5 -22 9 -30 9 -10 0 -8 -3 5 -9z"/>
<path d="M7520 7466 c0 -2 11 -6 25 -8 13 -3 22 -1 19 3 -5 9 -44 13 -44 5z"/>
<path d="M7687 7449 c7 -7 15 -10 18 -7 3 3 -2 9 -12 12 -14 6 -15 5 -6 -5z"/>
<path d="M7605 7409 c-4 -6 -5 -12 -2 -15 2 -3 7 2 10 11 7 17 1 20 -8 4z"/>
<path d="M10178 7393 c12 -2 32 -2 45 0 12 2 2 4 -23 4 -25 0 -35 -2 -22 -4z"/>
<path d="M7606 7372 c-2 -4 4 -8 14 -8 10 0 16 4 14 8 -3 4 -9 8 -14 8 -5 0
-11 -4 -14 -8z"/>
<path d="M3643 7362 c-40 -3 -43 -5 -43 -33 0 -28 2 -29 45 -29 42 0 115 33
115 51 0 9 -64 15 -117 11z"/>
<path d="M9580 7340 c0 -5 5 -10 10 -10 6 0 10 5 10 10 0 6 -4 10 -10 10 -5 0
-10 -4 -10 -10z"/>
<path d="M9587 7303 c-4 -3 -7 -11 -7 -17 0 -6 5 -5 12 2 6 6 9 14 7 17 -3 3
-9 2 -12 -2z"/>
<path d="M3600 7280 c0 -5 -6 -7 -13 -4 -9 3 -13 -6 -14 -33 -1 -29 1 -33 8
-20 7 12 23 17 54 17 41 0 45 2 45 25 0 35 -38 32 -54 -5 -3 -8 -4 -5 -2 8 3
14 -1 22 -10 22 -8 0 -14 -4 -14 -10z"/>
<path d="M6928 7268 c9 -9 15 -9 24 0 9 9 7 12 -12 12 -19 0 -21 -3 -12 -12z"/>
<path d="M7458 7273 c12 -2 32 -2 45 0 12 2 2 4 -23 4 -25 0 -35 -2 -22 -4z"/>
<path d="M3553 7186 c7 -13 16 -22 20 -19 5 3 13 0 17 -7 5 -7 8 -3 8 13 0 17
-5 24 -13 21 -7 -3 -16 -1 -20 5 -13 22 -23 10 -12 -13z"/>
<path d="M7602 7190 c0 -14 2 -19 5 -12 2 6 2 18 0 25 -3 6 -5 1 -5 -13z"/>
<path d="M3840 7141 c0 -12 6 -21 15 -21 8 0 15 4 15 9 0 5 -7 14 -15 21 -13
10 -15 9 -15 -9z"/>
<path d="M6933 7153 c-21 -8 -15 -33 7 -33 13 0 20 7 20 20 0 20 -5 23 -27 13z"/>
<path d="M3560 7136 c0 -8 -4 -16 -10 -18 -6 -2 -6 -9 0 -18 11 -17 15 -13 24
23 4 16 2 27 -4 27 -5 0 -10 -6 -10 -14z"/>
<path d="M7520 7136 c0 -9 5 -16 10 -16 6 0 10 4 10 9 0 6 -4 13 -10 16 -5 3
-10 -1 -10 -9z"/>
<path d="M9655 7130 c-3 -5 -1 -10 4 -10 6 0 11 5 11 10 0 6 -2 10 -4 10 -3 0
-8 -4 -11 -10z"/>
<path d="M3587 7106 c-4 -15 -6 -31 -2 -34 10 -10 16 6 13 35 l-3 28 -8 -29z"/>
<path d="M6918 7077 c-10 -20 -12 -40 -7 -53 9 -25 29 -41 29 -24 0 6 5 8 10
5 15 -10 12 74 -4 90 -11 11 -15 8 -28 -18z"/>
<path d="M7601 7094 c0 -11 3 -14 6 -6 3 7 2 16 -1 19 -3 4 -6 -2 -5 -13z"/>
<path d="M7626 7062 c-2 -4 -1 -14 5 -22 7 -12 9 -10 9 8 0 23 -5 28 -14 14z"/>
<path d="M6800 7020 c0 -17 7 -20 40 -20 33 0 40 3 40 20 0 17 -7 20 -40 20
-33 0 -40 -3 -40 -20z"/>
<path d="M7631 7004 c0 -11 3 -14 6 -6 3 7 2 16 -1 19 -3 4 -6 -2 -5 -13z"/>
<path d="M7617 6973 c-4 -3 -7 -16 -6 -27 0 -19 1 -19 10 3 10 24 8 36 -4 24z"/>
<path d="M7641 6944 c0 -11 3 -14 6 -6 3 7 2 16 -1 19 -3 4 -6 -2 -5 -13z"/>
<path d="M7620 6890 c0 -5 5 -10 10 -10 6 0 10 5 10 10 0 6 -4 10 -10 10 -5 0
-10 -4 -10 -10z"/>
<path d="M7651 6864 c0 -11 3 -14 6 -6 3 7 2 16 -1 19 -3 4 -6 -2 -5 -13z"/>
<path d="M4560 6790 c0 -5 7 -7 15 -4 8 4 15 8 15 10 0 2 -7 4 -15 4 -8 0 -15
-4 -15 -10z"/>
<path d="M4640 6780 c0 -11 6 -20 14 -20 24 0 26 15 5 28 -16 11 -19 9 -19 -8z"/>
<path d="M6488 6793 c7 -3 16 -2 19 1 4 3 -2 6 -13 5 -11 0 -14 -3 -6 -6z"/>
<path d="M5218 6703 c12 -2 22 -9 22 -14 0 -5 9 -9 20 -9 11 0 20 7 20 15 0
11 -11 15 -42 14 -24 -1 -33 -4 -20 -6z"/>
</g>
</svg>
