<svg xmlns="http://www.w3.org/2000/svg" viewBox="0 0 1141.14 159.76"><defs><style>.a,.b{fill:none;}.a{stroke:#000;stroke-miterlimit:10;stroke-width:10px;}</style></defs><title>border-patter-1</title><path class="a" d="M3.5,245.45c174,0,163.05,79.76,285.4,79.76s160.35-79.76,285.39-79.76" transform="translate(-3.5 -220.12)"/><circle cx="285.4" cy="26.92" r="26.92"/><path class="b" d="M3.5,285v18.15A26.92,26.92,0,0,1,3.5,357v22.86H63.3V285Z" transform="translate(-3.5 -220.12)"/><path d="M30.42,330.1A26.92,26.92,0,0,0,3.5,303.18V357A26.92,26.92,0,0,0,30.42,330.1Z" transform="translate(-3.5 -220.12)"/><path class="b" d="M574.29,373.82V355.67a26.92,26.92,0,0,1,0-53.84V279h-59.8v94.85Z" transform="translate(-3.5 -220.12)"/><path d="M547.38,328.75a26.91,26.91,0,0,0,26.91,26.92V301.83A26.91,26.91,0,0,0,547.38,328.75Z" transform="translate(-3.5 -220.12)"/><path class="a" d="M573.85,245.46c174,0,163,79.77,285.4,79.77s160.35-79.77,285.39-79.77" transform="translate(-3.5 -220.12)"/><circle cx="855.75" cy="26.93" r="26.92"/><path class="b" d="M574.29,283.72v18.15a26.92,26.92,0,1,1,0,53.84v22.86H634.1V283.72Z" transform="translate(-3.5 -220.12)"/><path d="M601.21,328.79a26.92,26.92,0,0,0-26.92-26.92v53.84A26.92,26.92,0,0,0,601.21,328.79Z" transform="translate(-3.5 -220.12)"/><path class="b" d="M1144.64,376.17V358a26.92,26.92,0,1,1,0-53.83V281.33h-59.8v94.84Z" transform="translate(-3.5 -220.12)"/><path d="M1117.72,330a26.93,26.93,0,0,0,26.92,26.92V303.05A26.92,26.92,0,0,0,1117.72,330Z" transform="translate(-3.5 -220.12)"/></svg>