<?xml version="1.0" encoding="utf-8"?>
<!-- Generator: Adobe Illustrator 23.0.1, SVG Export Plug-In . SVG Version: 6.00 Build 0)  -->
<svg version="1.1" baseProfile="tiny" xmlns="http://www.w3.org/2000/svg" xmlns:xlink="http://www.w3.org/1999/xlink" x="0px"
	 y="0px" viewBox="0 0 1200 600" xml:space="preserve">
<g id="Layer_1" display="none">
	
		<rect x="-20.9" y="-13.52" display="inline" fill="#545454" stroke="#000000" stroke-miterlimit="10" width="1234.52" height="624.4"/>
</g>
<g id="Layer_3">
</g>
<g id="Layer_2">
	<g>
		<g>
			<path fill="#FFFFFF" d="M57.45,230.11c-7.91-0.95-14.44-4.13-19.59-9.52c-5.15-5.39-9.16-12.22-12.04-20.48
				c-2.88-8.27-4.98-17.73-6.29-28.39c-1.32-10.66-2.22-21.8-2.7-33.42c-0.48-11.62-0.66-23.54-0.54-35.76
				c0.12-12.22,0.06-23.95-0.18-35.22c0-5.51,1.2-8.27,3.59-8.27c1.92,0,2.88,2.52,2.88,7.55c-0.72,14.86-1.08,28.99-1.08,42.41
				c0,17.01,0.66,32.52,1.98,46.54c1.31,14.02,3.41,26.05,6.29,36.12c2.88,10.06,6.7,17.97,11.5,23.72
				c4.79,5.75,10.78,8.87,17.97,9.34c9.34,0,18.02-3.47,26.05-10.42c8.02-6.95,15.33-15.93,21.92-26.95
				c6.59-11.02,12.46-23.3,17.61-36.84c5.15-13.53,9.46-27.01,12.94-40.43c3.47-13.42,6.23-25.99,8.27-37.73
				c2.03-11.74,3.17-21.2,3.41-28.39c0-2.39,0.48-4.13,1.44-5.21c0.95-1.08,1.8-1.62,2.52-1.62c1.92,0,2.88,1.92,2.88,5.75v2.16
				l-1.8,12.22c-0.96,10.3-1.8,21.62-2.52,33.96c-0.72,12.34-1.08,24.86-1.08,37.55c0,12.7,0.42,25.04,1.26,37.02
				c0.84,11.98,2.34,22.64,4.49,31.98c2.16,9.34,5.03,16.89,8.62,22.64s8.14,8.62,13.66,8.62c4.79,0.24,10.96-3.05,18.51-9.88
				s15.15-18.63,22.82-35.4c1.44-3.35,2.63-5.63,3.59-6.83c0.95-1.2,1.67-1.8,2.16-1.8c0.95,0,1.44,1.08,1.44,3.23
				c0,1.2-0.12,2.4-0.36,3.59c-0.24,1.2-0.6,2.4-1.08,3.59c-3.36,6.95-6.83,13.42-10.42,19.41c-3.59,5.99-7.43,11.26-11.5,15.81
				c-4.08,4.55-8.33,8.15-12.76,10.78c-4.44,2.63-9.29,3.95-14.56,3.95c-6.23,0-11.38-2.94-15.45-8.8
				c-4.08-5.87-7.31-13.59-9.7-23.18c-2.4-9.58-4.08-20.54-5.03-32.88c-0.96-12.34-1.44-24.98-1.44-37.91
				c0-5.27,0.06-10.48,0.18-15.63c0.12-5.15,0.3-10.24,0.54-15.27c-3.59,14.62-8.03,29.53-13.3,44.74
				c-5.27,15.22-11.44,29.05-18.51,41.51c-7.07,12.46-14.98,22.64-23.72,30.55c-8.75,7.91-18.51,11.86-29.29,11.86
				c-0.72,0-1.38-0.06-1.98-0.18C58.46,230.17,57.92,230.11,57.45,230.11z"/>
			<path fill="#FFFFFF" d="M240.72,147.09c-0.72,1.44-1.08,3.12-1.08,5.03c0,3.36,0.9,7.25,2.7,11.68c1.8,4.44,3.95,8.98,6.47,13.66
				c2.52,4.67,5.21,9.34,8.09,14.02s5.51,9.16,7.91,13.48c1.67,3.12,2.52,6.11,2.52,8.98c0,3.36-1.44,6.71-4.31,10.06
				c7.66-2.88,14.25-7.96,19.77-15.27c5.51-7.31,10.06-15.63,13.66-24.98c1.67-4.79,3.35-7.19,5.03-7.19c1.2,0,1.8,1.08,1.8,3.23
				c0,1.68-0.36,3.59-1.08,5.75c-3.36,9.59-7.31,17.49-11.86,23.72c-4.55,6.23-9.77,11.2-15.63,14.91
				c-5.87,3.72-12.46,6.47-19.77,8.27c-7.31,1.8-15.27,3.05-23.9,3.77c-3.59,0-5.39-0.96-5.39-2.88c0-1.2,1.85-2.16,5.57-2.88
				c3.71-0.72,7.78-1.62,12.22-2.7c4.43-1.08,8.5-2.75,12.22-5.03c3.71-2.27,5.57-5.69,5.57-10.24c0-2.39-1.08-5.63-3.23-9.7
				c-2.16-4.07-4.67-8.5-7.55-13.3c-2.88-4.79-5.75-9.52-8.63-14.2s-5.15-8.8-6.83-12.4c-0.96,2.16-1.98,4.73-3.05,7.73
				c-1.08,3-2.22,5.81-3.41,8.45c-1.2,2.64-2.34,4.85-3.41,6.65s-1.98,2.7-2.7,2.7c-0.96,0-1.44-1.2-1.44-3.59
				c0-1.67,0.42-3.83,1.26-6.47c0.84-2.63,1.8-5.39,2.88-8.27s2.27-5.75,3.59-8.62c1.31-2.88,2.34-5.39,3.05-7.55
				c-0.48-1.44-0.72-2.39-0.72-2.88c0-3.59,1.13-6.41,3.41-8.45c2.27-2.03,4.01-3.05,5.21-3.05c1.67,0,2.52,0.84,2.52,2.52
				c0,0.72-0.12,1.44-0.36,2.16C241.56,144.94,241.2,145.9,240.72,147.09z"/>
			<path fill="#FFFFFF" d="M302.18,185.55c-1.2,2.88-2.28,4.31-3.23,4.31h-0.36c0.24,2.88,0.6,6.05,1.08,9.52
				c0.48,3.48,1.02,6.71,1.62,9.7c0.6,3,1.26,5.51,1.98,7.55c0.72,2.04,1.44,3.05,2.16,3.05c0.24,0,0.48-0.12,0.72-0.36
				c0-0.24,1.31-2.81,3.95-7.73c2.63-4.91,5.81-10.36,9.52-16.35c3.71-5.99,7.6-11.44,11.68-16.35c4.07-4.91,7.55-7.37,10.42-7.37
				c2.16,0,3.83,2.94,5.03,8.8c1.2,5.87,2.45,12.4,3.77,19.59c1.31,7.19,2.7,13.72,4.13,19.59c1.44,5.87,3.35,8.8,5.75,8.8
				c2.63,0,5.75-1.8,9.34-5.39c1.67-1.67,4.13-5.09,7.37-10.24c3.23-5.15,6.35-10.54,9.34-16.17c2.99-5.63,5.69-10.6,8.09-14.91
				c2.39-4.31,3.83-6.47,4.31-6.47c0.95,0,1.44,1.08,1.44,3.23c0,1.2-0.12,2.4-0.36,3.59c-0.24,1.2-0.6,2.4-1.08,3.59
				c-2.64,6.23-5.57,12.28-8.81,18.15c-3.23,5.87-6.59,11.14-10.06,15.81c-3.48,4.67-6.95,8.45-10.42,11.32
				c-3.48,2.88-6.77,4.31-9.88,4.31c-4.31,0-7.49-2.88-9.52-8.62c-2.04-5.75-3.54-12.04-4.49-18.87
				c-0.96-6.83-1.74-13.12-2.34-18.87c-0.6-5.75-1.74-8.62-3.41-8.62c-1.68,0-3.66,1.38-5.93,4.13c-2.28,2.76-4.73,6.23-7.37,10.42
				c-2.64,4.19-5.21,8.69-7.73,13.48c-2.52,4.8-4.8,9.29-6.83,13.48c-2.04,4.19-4.26,9.05-6.65,14.55l-0.36-0.36h-0.36
				c-2.4,0-4.55-3.66-6.47-10.96c-1.92-7.31-3.54-16.59-4.85-27.85c-1.32-11.26-2.34-23.66-3.05-37.2
				c-0.72-13.53-1.08-26.53-1.08-38.99c0-14.38,0.54-28.33,1.62-41.87c1.08-13.53,2.75-25.52,5.03-35.94
				c2.27-10.42,5.15-18.81,8.62-25.16c3.47-6.35,7.73-9.52,12.76-9.52c5.51,0,9.28,2.94,11.32,8.8c2.03,5.87,3.05,13.36,3.05,22.46
				c0,11.98-1.26,25.52-3.77,40.61s-5.09,29.35-7.73,42.77c0,0.24-0.54,2.46-1.62,6.65c-1.08,4.19-2.4,9.41-3.95,15.63
				c-1.56,6.23-3.41,12.94-5.57,20.12S304.57,179.32,302.18,185.55z M307.21,24.37c-2.88,6.11-5.21,14.2-7.01,24.26
				s-3.18,21.56-4.13,34.5c-0.96,12.94-1.44,26.36-1.44,40.25c0,10.06,0.24,20.01,0.72,29.83c0.48,9.83,1.2,19.29,2.16,28.39
				l0.72-1.44c4.79-14.61,8.74-27.43,11.86-38.45c1.67-6.23,3.23-11.98,4.67-17.25c4.07-19.88,6.83-36.35,8.27-49.41
				c1.44-13.06,2.16-23.66,2.16-31.81c0-7.19-0.42-12.7-1.26-16.53c-0.84-3.83-1.74-6.65-2.7-8.45c-0.96-1.8-2.16-2.93-3.59-3.41
				C313.55,15.08,310.08,18.26,307.21,24.37z"/>
			<path fill="#FFFFFF" d="M436.58,149.97c-0.24,1.68-0.36,3.3-0.36,4.85c0,1.56,0,3.18,0,4.85c2.16,2.16,3.23,3.95,3.23,5.39
				c0,0.48-0.36,0.72-1.08,0.72s-1.44-0.36-2.16-1.08c0,1.92-0.06,4.08-0.18,6.47c-0.12,2.4-0.18,4.67-0.18,6.83
				c0,6.71,0.18,13,0.54,18.87c0.36,5.87,0.95,10.96,1.8,15.27c0.84,4.31,1.98,7.73,3.41,10.24s3.35,3.77,5.75,3.77
				c5.51,0,11.38-3.77,17.61-11.32c6.23-7.55,12.22-17.91,17.97-31.09c1.44-3.35,2.63-5.63,3.59-6.83c0.95-1.2,1.67-1.8,2.16-1.8
				c0.95,0,1.44,1.08,1.44,3.23c0,1.2-0.12,2.4-0.36,3.59c-0.24,1.2-0.6,2.4-1.08,3.59c-5.99,13.9-12.22,25.16-18.69,33.78
				s-14.02,12.94-22.64,12.94c-5.51,0-9.52-2.7-12.04-8.09s-4.13-12.4-4.85-21.02c-1.68,7.19-4.37,13.36-8.09,18.51
				c-3.72,5.15-9.16,7.73-16.35,7.73c-6.71,0-11.32-2.09-13.84-6.29c-2.52-4.19-3.77-9.16-3.77-14.91c0-6.7,1.08-13.3,3.23-19.77
				s4.91-12.1,8.27-16.89c3.35-4.79,7.13-8.68,11.32-11.68c4.19-2.99,8.45-4.49,12.76-4.49h1.44l5.03,1.08v-6.11
				c0-0.95,0.36-1.67,1.08-2.16c0.72-0.48,1.44-0.72,2.16-0.72C435.62,147.45,436.58,148.29,436.58,149.97z M402.08,222.2
				c1.67,0.96,3.47,1.44,5.39,1.44c3.59,0,6.65-1.62,9.16-4.85s4.67-7.37,6.47-12.4c1.8-5.03,3.17-10.66,4.13-16.89
				c0.95-6.23,1.67-12.34,2.16-18.33l0.72-9.34c-1.2-0.48-2.34-0.72-3.41-0.72s-2.34,0-3.77,0c-3.59,0.24-7.19,1.86-10.78,4.85
				c-3.59,3-6.71,6.71-9.34,11.14c-2.64,4.44-4.8,9.23-6.47,14.38c-1.68,5.15-2.52,10.01-2.52,14.56c0,3.59,0.66,6.83,1.98,9.7
				C397.11,218.61,399.21,220.77,402.08,222.2z"/>
		</g>
		<g>
			<path fill="#FFFFFF" d="M784.98,233.7c21.32,0,38.45-6.7,51.39-20.12c0-9.1-0.06-18.45-0.18-28.03
				c-0.12-9.58-0.3-18.92-0.54-28.03l-18.69,2.16c-1.92,0-2.88-0.84-2.88-2.52c0-1.92,0.72-3.11,2.16-3.59l20.84-2.16h1.08
				c2.16,0,3.23,0.72,3.23,2.16c0,3.36,0.06,8.15,0.18,14.38c0.12,6.23,0.24,13.24,0.36,21.02c0.12,7.79,0.24,15.94,0.36,24.44
				c0.12,8.51,0.18,16.59,0.18,24.26v14.02c10.06-12.7,17.97-23.77,23.72-33.24c5.75-9.46,10.24-17.31,13.48-23.54
				c3.23-6.23,5.57-10.9,7.01-14.02c1.44-3.11,2.75-4.67,3.95-4.67c0.72,0,1.08,1.08,1.08,3.23s-0.36,4.08-1.08,5.75
				c-5.27,13.9-12.22,27.02-20.84,39.35s-17.85,24.62-27.67,36.84c-0.48,11.26-1.14,22.16-1.98,32.7
				c-0.84,10.54-2.28,19.95-4.31,28.21c-2.04,8.27-4.91,14.91-8.62,19.95c-3.72,5.03-8.45,7.55-14.2,7.55s-10.48-1.68-14.2-5.03
				c-3.72-3.36-5.57-7.91-5.57-13.66c0-6.23,2.03-13.48,6.11-21.74c4.07-8.27,10.9-18.15,20.48-29.65l16.17-19.77v-10.42
				c0-3.83,0.06-8.15,0.18-12.94c0.12-4.8,0.18-9.82,0.18-15.09c-6.95,5.99-14.62,10.6-23,13.84c-8.39,3.23-17.85,4.85-28.39,4.85
				c-10.55,0-20.07-2.28-28.57-6.83c-8.51-4.55-15.69-10.84-21.56-18.87c-5.87-8.02-10.42-17.61-13.66-28.75s-4.85-23.18-4.85-36.12
				c0-15.33,1.98-29.65,5.93-42.95s9.28-24.92,15.99-34.86c6.71-9.94,14.43-17.79,23.18-23.54c8.74-5.75,17.79-8.62,27.13-8.62
				c0.95,0,3.77,0.54,8.45,1.62s9.64,2.88,14.91,5.39c5.27,2.52,10,5.75,14.2,9.7c4.19,3.95,6.29,8.69,6.29,14.2
				c0,1.68-0.72,2.52-2.16,2.52c-0.48,0-0.96-0.12-1.44-0.36c-5.03-7.91-11.02-14.25-17.97-19.05c-6.95-4.79-14.38-7.19-22.28-7.19
				c-8.63,0-16.89,2.64-24.8,7.91c-7.91,5.27-14.98,12.46-21.2,21.56c-6.23,9.11-11.2,19.83-14.91,32.16
				c-3.72,12.34-5.57,25.7-5.57,40.07c0,10.06,1.08,20.07,3.23,30.01c2.16,9.94,5.75,18.93,10.78,26.95
				c5.03,8.03,11.56,14.62,19.59,19.77C763.72,230.05,773.48,232.98,784.98,233.7z M807.26,341.88c2.16,0.72,4.07,1.08,5.75,1.08
				c7.67,0,13.17-6.59,16.53-19.77c3.35-13.18,5.39-31.03,6.11-53.55l-10.78,13.66c-9.11,11.5-15.58,21.08-19.41,28.75
				c-3.84,7.66-5.75,13.77-5.75,18.33C799.72,336.13,802.23,339.96,807.26,341.88z"/>
			<path fill="#FFFFFF" d="M893.15,175.84c-0.24,5.51-0.48,10.48-0.72,14.91c-0.24,4.44-0.36,8.69-0.36,12.76
				c0,8.39,0.72,14.8,2.16,19.23c1.44,4.44,4.43,6.65,8.98,6.65c5.03,0,9.46-2.52,13.3-7.55c3.83-5.03,7.13-10.9,9.88-17.61
				c2.75-6.71,4.85-13.53,6.29-20.48c1.44-6.95,2.16-12.22,2.16-15.81c0-0.95,0.36-1.67,1.08-2.16c0.72-0.48,1.44-0.72,2.16-0.72
				c1.92,0,2.88,0.96,2.88,2.88c-0.72,6.47-1.32,12.76-1.8,18.87c-0.48,6.11-0.72,11.92-0.72,17.43c0,8.62,0.9,15.63,2.7,21.02
				s5.09,8.09,9.88,8.09c3.59,0,7.12-1.32,10.6-3.95c3.47-2.63,6.88-6.23,10.24-10.78c3.35-4.55,6.59-9.82,9.7-15.81
				c3.11-5.99,6.11-12.34,8.98-19.05c1.44-3.35,2.63-5.63,3.59-6.83c0.95-1.2,1.67-1.8,2.16-1.8c0.95,0,1.44,1.08,1.44,3.23
				c0,1.2-0.12,2.4-0.36,3.59c-0.24,1.2-0.6,2.4-1.08,3.59c-2.88,6.95-6.05,13.66-9.52,20.13c-3.48,6.47-7.07,12.16-10.78,17.07
				c-3.72,4.91-7.67,8.8-11.86,11.68c-4.2,2.88-8.45,4.31-12.76,4.31c-4.08,0-7.37-0.9-9.88-2.7s-4.44-4.26-5.75-7.37
				c-1.32-3.11-2.22-6.77-2.7-10.96c-0.48-4.19-0.72-8.68-0.72-13.48c-3.36,9.11-7.55,16.48-12.58,22.1s-10.54,8.45-16.53,8.45
				c-3.59,0-6.47-0.84-8.62-2.52s-3.9-3.95-5.21-6.83c-1.32-2.88-2.16-6.17-2.52-9.88c-0.36-3.71-0.54-7.6-0.54-11.68v-10.42
				c0-4.79,0.18-9.34,0.54-13.66s1.49-6.47,3.41-6.47C892.19,173.33,893.15,174.17,893.15,175.84z"/>
			<path fill="#FFFFFF" d="M997.73,219.33l0.36,0.72h0.36c0.48,0,0.84-0.24,1.08-0.72c0.24-0.48,1.62-3.65,4.13-9.52
				c2.52-5.87,5.45-12.22,8.8-19.05c3.35-6.83,6.95-13.06,10.78-18.69c3.83-5.63,7.31-8.45,10.42-8.45c1.44,0,2.7,1.62,3.77,4.85
				s2.03,7.25,2.88,12.04c0.84,4.8,1.62,10.06,2.34,15.81c0.72,5.75,1.56,11.02,2.52,15.81c0.96,4.8,2.16,8.8,3.59,12.04
				s3.23,4.85,5.39,4.85c7.66,0,14.13-4.13,19.41-12.4c5.27-8.27,11.02-19.23,17.25-32.88c1.44-3.35,2.63-5.63,3.59-6.83
				c0.95-1.2,1.67-1.8,2.16-1.8c0.95,0,1.44,1.08,1.44,3.23c0,1.2-0.12,2.4-0.36,3.59c-0.24,1.2-0.6,2.4-1.08,3.59
				c-2.88,6.95-5.87,13.42-8.98,19.41c-3.12,5.99-6.29,11.2-9.52,15.63c-3.23,4.44-6.65,7.91-10.24,10.42s-7.55,3.77-11.86,3.77
				c-3.84,0-7.01-1.56-9.52-4.67s-4.49-6.95-5.93-11.5c-1.44-4.55-2.52-9.58-3.23-15.09c-0.72-5.51-1.32-10.54-1.8-15.09
				c-0.48-4.55-0.96-8.38-1.44-11.5c-0.48-3.11-1.2-4.67-2.16-4.67c-1.44,0-3.48,2.22-6.11,6.65c-2.64,4.44-5.27,9.52-7.91,15.27
				c-2.64,5.75-5.27,11.5-7.91,17.25c-2.64,5.75-4.67,9.94-6.11,12.58c-1.92,3.12-3.48,5.09-4.67,5.93
				c-1.2,0.84-2.52,1.26-3.95,1.26c-2.16,0-3.18-0.95-3.05-2.88c0.12-1.92,0.18-3.71,0.18-5.39c0-7.67,0.12-16.17,0.36-25.52
				c0.24-9.34,0.54-18.03,0.9-26.06c0.36-8.02,0.9-14.73,1.62-20.12s1.56-8.09,2.52-8.09c0.96,0,1.8,0.36,2.52,1.08
				s1.08,1.44,1.08,2.16c-0.48,5.99-0.9,11.32-1.26,15.99s-0.66,9.16-0.9,13.48c-0.24,4.31-0.48,8.69-0.72,13.12
				c-0.24,4.44-0.48,9.29-0.72,14.56V219.33z"/>
			<path fill="#FFFFFF" d="M1134.29,149.97c-0.24,1.68-0.36,3.3-0.36,4.85c0,1.56,0,3.18,0,4.85c2.16,2.16,3.23,3.95,3.23,5.39
				c0,0.48-0.36,0.72-1.08,0.72s-1.44-0.36-2.16-1.08c0,1.92-0.06,4.08-0.18,6.47c-0.12,2.4-0.18,4.67-0.18,6.83
				c0,6.71,0.18,13,0.54,18.87c0.36,5.87,0.96,10.96,1.8,15.27c0.84,4.31,1.98,7.73,3.41,10.24s3.35,3.77,5.75,3.77
				c5.51,0,11.38-3.77,17.61-11.32c6.23-7.55,12.22-17.91,17.97-31.09c1.44-3.35,2.63-5.63,3.59-6.83c0.95-1.2,1.67-1.8,2.16-1.8
				c0.95,0,1.44,1.08,1.44,3.23c0,1.2-0.12,2.4-0.36,3.59c-0.24,1.2-0.6,2.4-1.08,3.59c-5.99,13.9-12.22,25.16-18.69,33.78
				s-14.02,12.94-22.64,12.94c-5.51,0-9.52-2.7-12.04-8.09s-4.13-12.4-4.85-21.02c-1.68,7.19-4.37,13.36-8.09,18.51
				c-3.72,5.15-9.16,7.73-16.35,7.73c-6.71,0-11.32-2.09-13.84-6.29c-2.52-4.19-3.77-9.16-3.77-14.91c0-6.7,1.08-13.3,3.23-19.77
				s4.91-12.1,8.27-16.89c3.35-4.79,7.13-8.68,11.32-11.68c4.19-2.99,8.45-4.49,12.76-4.49h1.44l5.03,1.08v-6.11
				c0-0.95,0.36-1.67,1.08-2.16c0.72-0.48,1.44-0.72,2.16-0.72C1133.33,147.45,1134.29,148.29,1134.29,149.97z M1099.79,222.2
				c1.67,0.96,3.47,1.44,5.39,1.44c3.59,0,6.65-1.62,9.16-4.85s4.67-7.37,6.47-12.4s3.17-10.66,4.13-16.89
				c0.96-6.23,1.67-12.34,2.16-18.33l0.72-9.34c-1.2-0.48-2.34-0.72-3.41-0.72s-2.34,0-3.77,0c-3.59,0.24-7.19,1.86-10.78,4.85
				c-3.59,3-6.71,6.71-9.34,11.14c-2.64,4.44-4.79,9.23-6.47,14.38c-1.68,5.15-2.52,10.01-2.52,14.56c0,3.59,0.66,6.83,1.98,9.7
				C1094.81,218.61,1096.91,220.77,1099.79,222.2z"/>
		</g>
		<path fill="#B9121B" d="M681.32,130.6c0.04-1.13-0.04-2.27-0.28-3.37c-0.23-1.09-0.58-2.16-0.98-3.19
			c-0.37-0.93-0.83-1.81-1.37-2.65c0.02-0.07,0.04-0.15,0.04-0.22c0.02-0.3-0.07-0.66-0.28-0.88c-0.18-0.19-0.31-0.31-0.56-0.4
			c-0.16-0.06-0.29-0.07-0.43-0.07c-0.39-0.4-0.81-0.77-1.27-1.08c-0.45-0.31-0.96-0.55-1.47-0.77c-0.09-0.04-0.19-0.08-0.28-0.11
			c-0.48-0.17-0.98-0.29-1.48-0.4c-1.04-0.22-2.1-0.34-3.17-0.4c-1.19-0.07-2.39-0.03-3.58,0c-0.79,0.02-1.58,0.07-2.37,0.12
			c-0.69,0.04-1.38,0.09-2.07,0.15c-0.68,0.06-1.37,0.11-2.05,0.2c-0.84,0.11-1.68,0.22-2.53,0.33c-0.52,0.07-1.04,0.18-1.55,0.27
			c-0.51,0.1-1.03,0.21-1.54,0.34c-1.06,0.26-2.1,0.58-3.12,0.98c-0.47,0.18-0.92,0.39-1.36,0.63c-0.08,0.05-0.17,0.09-0.25,0.14
			c-0.1-0.36-0.19-0.72-0.29-1.08c-0.2-0.73-0.37-1.48-0.59-2.21c-0.17-0.55-0.33-1.1-0.56-1.62c-0.23-0.56-0.54-1.07-0.86-1.58
			c-0.61-0.95-1.46-1.76-2.32-2.47c-0.89-0.74-1.91-1.31-2.96-1.8c-0.25-0.12-0.51-0.22-0.77-0.32c-0.84-0.31-1.71-0.51-2.59-0.67
			c-1.06-0.2-2.16-0.27-3.24-0.25c-1.15,0.02-2.3,0.13-3.43,0.37c-1.14,0.24-2.26,0.63-3.34,1.06c-0.98,0.39-1.93,0.86-2.84,1.38
			c-1.02,0.58-2.01,1.23-2.88,2.03c-0.87,0.79-1.62,1.71-2.21,2.71c-0.33,0.55-0.62,1.12-0.86,1.71c-0.27,0.64-0.43,1.31-0.57,1.98
			c-0.24,1.13-0.24,2.3-0.09,3.44c0.15,1.13,0.52,2.24,0.94,3.3c0.39,0.99,0.86,1.94,1.38,2.86c0.63,1.13,1.35,2.19,2.08,3.26
			c0.41,0.61,0.87,1.19,1.32,1.78c0.45,0.59,0.92,1.17,1.39,1.74c1.9,2.34,3.85,4.64,5.79,6.94c0.84,0.99,1.7,1.95,2.57,2.91
			c1.25,1.38,2.5,2.76,3.53,4.31c0.41,0.68,0.77,1.4,1.04,2.15c0.24,0.85,0.39,1.72,0.55,2.59c0.04,0.2,0.07,0.4,0.11,0.6
			c0.07,0.39,0.16,0.77,0.2,1.17c0.05,0.27,0.15,0.51,0.31,0.73c-0.06,0.14-0.11,0.28-0.17,0.42c-0.26,0.66,0.01,1.45,0.58,1.86
			c0.35,0.25,0.8,0.35,1.22,0.27c0.39-0.07,0.81-0.31,1.02-0.65c0.36-0.59,0.75-1.15,1.13-1.73c0.2-0.31,0.4-0.63,0.59-0.94
			c0.37-0.6,0.77-1.17,1.23-1.7c0.67-0.68,1.41-1.31,2.2-1.85c0.38-0.26,0.75-0.52,1.13-0.77c0.54-0.33,1.08-0.66,1.64-0.96
			c0.31-0.17,0.62-0.35,0.94-0.51c0.42-0.21,0.84-0.42,1.27-0.63c0.28-0.14,0.56-0.26,0.84-0.39c0.32-0.15,0.64-0.3,0.96-0.44
			c0.68-0.29,1.36-0.59,2.06-0.86c0.42-0.16,0.83-0.33,1.25-0.48c0.44-0.15,0.87-0.3,1.31-0.45c0.34-0.09,0.67-0.19,1.01-0.28
			c0.29-0.08,0.58-0.17,0.87-0.24c0.73-0.17,1.47-0.35,2.21-0.51c1.58-0.33,3.16-0.68,4.74-1.03c0.28-0.06,0.55-0.14,0.82-0.22
			c0.45-0.12,0.9-0.24,1.35-0.36c0.38-0.1,0.75-0.23,1.13-0.35c0.52-0.17,1.03-0.36,1.54-0.57c1.02-0.43,1.96-1,2.87-1.64
			c0.91-0.64,1.72-1.39,2.48-2.21c0.34-0.38,0.63-0.79,0.88-1.23c0.31-0.55,0.58-1.12,0.79-1.72c0.38-1.09,0.63-2.22,0.87-3.35
			C681.14,132.69,681.28,131.65,681.32,130.6z M623.52,117.88c0.37-0.66,0.79-1.28,1.29-1.85c0.66-0.67,1.4-1.24,2.19-1.76
			c1.42-0.87,2.95-1.57,4.52-2.1c1.11-0.34,2.26-0.54,3.42-0.62c1.26-0.04,2.52,0.04,3.76,0.29c0.92,0.22,1.8,0.54,2.64,0.95
			c0.6,0.33,1.16,0.71,1.7,1.14c-0.29,0.05-0.58,0.11-0.87,0.17c-0.68,0.14-1.37,0.28-2.05,0.45c-0.69,0.17-1.39,0.33-2.08,0.52
			c-0.89,0.25-1.77,0.49-2.66,0.74c-0.58,0.16-1.15,0.35-1.73,0.53c-0.95,0.29-1.91,0.59-2.86,0.88c-1.44,0.44-2.87,0.93-4.3,1.41
			c-1.23,0.4-2.46,0.81-3.68,1.23c0-0.01,0-0.01,0-0.02C622.97,119.15,623.21,118.5,623.52,117.88z M623.05,123.57
			c-0.11-0.39-0.2-0.78-0.27-1.17c2.73-0.93,5.47-1.83,8.21-2.72c1.53-0.47,3.07-0.94,4.6-1.41c0.63-0.19,1.27-0.35,1.9-0.53
			c0.68-0.19,1.36-0.37,2.05-0.53c0.83-0.2,1.66-0.39,2.5-0.55c0.47-0.09,0.93-0.17,1.4-0.25c0.19-0.03,0.39-0.06,0.58-0.1
			c0.11-0.02,0.21-0.05,0.31-0.08c0.13-0.04,0.27-0.07,0.39-0.13c0.05-0.02,0.1-0.05,0.15-0.08c0.12,0.22,0.23,0.45,0.34,0.68
			c0.15,0.33,0.26,0.67,0.38,1.02c0.15,0.53,0.29,1.06,0.43,1.58c-0.05,0.01-0.1,0.02-0.15,0.03c-0.38,0.08-0.75,0.18-1.13,0.26
			c-0.62,0.15-1.25,0.3-1.87,0.46c-0.71,0.19-1.43,0.36-2.14,0.56c-0.87,0.24-1.74,0.48-2.6,0.72c-1.28,0.35-2.55,0.74-3.82,1.11
			c-1.49,0.44-2.98,0.88-4.47,1.31c-0.68,0.2-1.36,0.39-2.04,0.59c-0.57,0.16-1.14,0.32-1.71,0.47c-0.38,0.1-0.76,0.19-1.15,0.26
			c-0.19,0.03-0.37,0.06-0.56,0.09c-0.12-0.09-0.26-0.15-0.41-0.16c-0.1-0.01-0.22,0.01-0.33,0.04
			C623.42,124.57,623.22,124.07,623.05,123.57z M626.67,130.17c-0.43-0.63-0.87-1.26-1.3-1.89c-0.31-0.5-0.61-1.01-0.89-1.53
			c0.33-0.04,0.67-0.09,1-0.15c0.56-0.1,1.11-0.24,1.66-0.39c0.47-0.12,0.93-0.25,1.4-0.37c0.82-0.22,1.63-0.44,2.45-0.66
			c1.35-0.37,2.69-0.75,4.04-1.12c1.55-0.42,3.09-0.85,4.65-1.24c1.44-0.36,2.88-0.72,4.33-1.03c0.55-0.12,1.1-0.24,1.65-0.35
			c0.08-0.02,0.17-0.03,0.25-0.05c0.18,0.11,0.4,0.16,0.62,0.1c0.03-0.01,0.06-0.02,0.09-0.02c0.09,0.34,0.18,0.68,0.28,1.01
			c0.04,0.12,0.08,0.25,0.12,0.37c0.11,0.24,0.28,0.44,0.49,0.59c0.07,0.05,0.15,0.09,0.23,0.13c0.2,0.34,0.66,0.47,1.02,0.3
			c0.16-0.08,0.28-0.2,0.36-0.34c0.2-0.11,0.37-0.26,0.5-0.44c0.22-0.31,0.36-0.77,0.26-1.15c-0.01-0.04-0.02-0.07-0.03-0.11
			c0.83-0.48,1.73-0.84,2.65-1.14c1.65-0.51,3.35-0.83,5.05-1.07c0.24-0.03,0.48-0.05,0.71-0.08c0.46-0.05,0.91-0.1,1.37-0.15
			c0.49-0.05,0.98-0.1,1.48-0.13c0.65-0.04,1.3-0.08,1.96-0.12c0.97-0.03,1.93-0.07,2.9-0.06c0.64,0.01,1.28,0.02,1.92,0.03
			c0.63,0.01,1.26,0.06,1.89,0.12c0.7,0.07,1.39,0.17,2.07,0.31c0.38,0.09,0.76,0.19,1.13,0.3c0.38,0.12,0.75,0.27,1.1,0.45
			c-0.3,0.05-0.59,0.1-0.89,0.14c-1.46,0.24-2.93,0.48-4.38,0.77c-1.53,0.3-3.05,0.6-4.57,0.93c-1.58,0.34-3.16,0.68-4.74,1.03
			c-1.51,0.34-3.02,0.68-4.53,1.03c-1.47,0.34-2.94,0.71-4.41,1.07c-1.46,0.36-2.91,0.76-4.36,1.15c-1.47,0.39-2.92,0.84-4.38,1.27
			c-1.41,0.42-2.81,0.87-4.21,1.31c-1.33,0.42-2.67,0.83-4,1.25c-1.83,0.57-3.66,1.17-5.48,1.79c-0.01-0.01-0.02-0.03-0.03-0.04
			c-0.26-0.34-0.52-0.68-0.78-1.01C627.1,130.72,626.87,130.46,626.67,130.17z M647.44,149.09c-0.41,0.23-0.81,0.52-1.21,0.77
			c-0.49,0.32-0.96,0.64-1.43,0.99c-0.51,0.39-1,0.82-1.45,1.28c-0.06-0.24-0.13-0.49-0.2-0.73c-0.14-0.47-0.29-0.92-0.47-1.37
			c0.1-0.03,0.2-0.05,0.31-0.08c1.03-0.25,2.06-0.51,3.09-0.76c0.47-0.11,0.93-0.24,1.41-0.33c0.16-0.03,0.33-0.06,0.49-0.09
			C647.8,148.88,647.62,148.99,647.44,149.09z M677.08,137.14c-0.25,0.45-0.54,0.86-0.88,1.25c-0.75,0.77-1.59,1.43-2.48,2.02
			c-0.94,0.57-1.96,1-3.01,1.35c-0.93,0.29-1.87,0.5-2.82,0.74c-0.74,0.18-1.5,0.31-2.24,0.47c-0.73,0.15-1.47,0.28-2.2,0.42
			c-0.72,0.14-1.44,0.29-2.16,0.44c-1.61,0.34-3.2,0.77-4.76,1.28c-0.15-0.16-0.36-0.31-0.58-0.39c-0.12-0.04-0.24-0.07-0.36-0.06
			c-0.91,0.02-1.8,0.16-2.69,0.32c-0.8,0.14-1.59,0.29-2.38,0.44c-0.68,0.13-1.36,0.28-2.05,0.42c-0.63,0.13-1.27,0.24-1.9,0.4
			c-1.11,0.28-2.22,0.56-3.33,0.84c-0.51,0.13-1.03,0.26-1.54,0.39c-0.14,0.03-0.28,0.07-0.41,0.11c-0.24-0.36-0.5-0.71-0.76-1.06
			c-0.3-0.4-0.62-0.78-0.94-1.15c1.13-0.27,2.26-0.53,3.39-0.79c1.15-0.27,2.31-0.54,3.47-0.79c1.97-0.42,3.94-0.84,5.91-1.26
			c1.18-0.25,2.36-0.48,3.54-0.71c1.39-0.27,2.78-0.56,4.17-0.81c1.55-0.28,3.11-0.57,4.67-0.81c0.77-0.12,1.54-0.25,2.32-0.36
			c0.78-0.11,1.56-0.21,2.34-0.33c0.71-0.11,1.42-0.19,2.13-0.32c0.82-0.14,1.65-0.29,2.47-0.46c0.2-0.04,0.4-0.09,0.6-0.13
			c0.49-0.11,0.99-0.22,1.43-0.45c0.35-0.19,0.63-0.45,0.77-0.84c0.13-0.37,0.12-0.78-0.05-1.13c-0.17-0.35-0.47-0.63-0.84-0.77
			c-0.28-0.1-0.65-0.13-0.95-0.03c-0.82,0.16-1.63,0.36-2.44,0.54c-0.68,0.15-1.37,0.28-2.05,0.4c-1.44,0.25-2.88,0.47-4.31,0.73
			c-1.54,0.27-3.08,0.55-4.62,0.85c-1.37,0.27-2.74,0.54-4.11,0.83c-1.51,0.32-3.03,0.62-4.55,0.96c-1.74,0.38-3.47,0.77-5.21,1.15
			c-1.11,0.25-2.23,0.49-3.34,0.75c-1.84,0.44-3.68,0.87-5.51,1.31c-0.39,0.09-0.79,0.19-1.18,0.29c-0.31-0.34-0.63-0.67-0.94-1.01
			c-0.89-0.96-1.75-1.95-2.6-2.95c1.49-0.37,2.98-0.73,4.47-1.08c1.2-0.29,2.39-0.58,3.59-0.85c3.18-0.72,6.36-1.45,9.54-2.16
			c1.36-0.3,2.72-0.61,4.08-0.9c1.49-0.31,2.98-0.64,4.47-0.92c1.57-0.29,3.14-0.59,4.72-0.86c1.59-0.28,3.19-0.55,4.78-0.82
			c1.23-0.21,2.45-0.43,3.68-0.66c0.3-0.06,0.6-0.11,0.89-0.17c0.36,0.32,0.9,0.45,1.34,0.22c0.26-0.14,0.53-0.28,0.79-0.43
			c0.29-0.16,0.57-0.33,0.87-0.47c0.02-0.01,0.05-0.02,0.07-0.03c0.23-0.11,0.43-0.27,0.58-0.48c0.21-0.29,0.35-0.75,0.25-1.11
			c0-0.01,0-0.02-0.01-0.02c-0.05-0.26-0.16-0.49-0.32-0.69c-0.16-0.2-0.4-0.37-0.66-0.46c-0.12-0.04-0.25-0.07-0.38-0.07
			c-0.5-0.01-0.96,0.12-1.44,0.23c-0.36,0.08-0.71,0.16-1.07,0.24c-0.77,0.17-1.55,0.33-2.33,0.49c-1.47,0.3-2.95,0.57-4.43,0.84
			c-1.53,0.28-3.06,0.56-4.58,0.85c-0.64,0.12-1.29,0.25-1.93,0.38c-0.73,0.14-1.46,0.27-2.19,0.43c-1.57,0.34-3.14,0.69-4.71,1.03
			c-1.59,0.35-3.17,0.74-4.76,1.1c-2.79,0.65-5.58,1.3-8.38,1.95c-1.3,0.3-2.59,0.63-3.88,0.94c-1.66,0.4-3.32,0.81-4.97,1.22
			c-0.39-0.46-0.78-0.93-1.17-1.39c-0.49-0.58-0.99-1.16-1.47-1.76c-0.11-0.13-0.21-0.26-0.32-0.38c0.51-0.17,1.02-0.34,1.53-0.51
			c0.61-0.19,1.22-0.39,1.83-0.57c0.77-0.23,1.55-0.45,2.32-0.68c1.37-0.4,2.74-0.8,4.11-1.21c0.78-0.23,1.57-0.46,2.35-0.7
			c0.74-0.22,1.5-0.41,2.25-0.62c0.63-0.18,1.27-0.37,1.9-0.52c0.84-0.21,1.69-0.42,2.53-0.63c0.63-0.16,1.26-0.33,1.89-0.47
			c0.83-0.19,1.66-0.37,2.49-0.56c0.65-0.15,1.3-0.3,1.95-0.44c0.83-0.17,1.66-0.34,2.49-0.51c3.01-0.62,6.03-1.21,9.05-1.78
			c0.65-0.12,1.3-0.23,1.95-0.35c0.65-0.11,1.3-0.23,1.96-0.34c1.56-0.25,3.12-0.49,4.69-0.71c0.54-0.07,1.07-0.15,1.61-0.23
			c0.09-0.01,0.19-0.03,0.28-0.04c0,0,0.01,0.01,0.01,0.01c0.65,1.06,1.15,2.19,1.54,3.38c0.34,1.1,0.6,2.22,0.68,3.36
			c0.05,1.43-0.13,2.85-0.42,4.25C677.95,134.78,677.63,136.02,677.08,137.14z"/>
		<path fill="#B9121B" d="M606.58,199.88c1.46-1.74,2.91-3.49,4.36-5.24c1.47-1.78,3-3.53,4.41-5.36c0.35-0.46,0.71-0.92,1.06-1.38
			c0.27-0.35,0.56-0.69,0.81-1.05c0.36-0.53,0.72-1.06,1.09-1.59c0.23-0.34,0.48-0.66,0.68-1.01c0.63-1.05,1.29-2.09,1.88-3.17
			c1.6-2.91,2.95-6,3.72-9.24c0.17-0.72,0.3-1.45,0.42-2.19c0.16-1.04,0.3-2.08,0.37-3.13c0.11-1.79-0.14-3.62-0.43-5.39
			c-0.12-0.71-0.28-1.42-0.45-2.11c-0.25-0.98-0.6-1.91-1.01-2.83c-0.68-1.56-1.63-2.96-2.67-4.3c-1.03-1.33-2.27-2.44-3.65-3.4
			c-1.37-0.95-2.91-1.62-4.46-2.21c-1.61-0.62-3.28-0.93-4.98-1.15c-0.68-0.09-1.36-0.13-2.05-0.13c-0.85,0-1.7,0.06-2.54,0.17
			c-1.73,0.22-3.42,0.54-5.07,1.11c-1.55,0.53-3.08,1.22-4.45,2.12c-0.75,0.49-1.45,1.06-2.15,1.63c-0.62,0.5-1.2,1.02-1.77,1.57
			c-1.1,1.05-2.11,2.19-3.05,3.38c-1.7,2.13-3.18,4.43-4.42,6.86c-0.54,1.05-1.01,2.14-1.45,3.24c-0.12-0.25-0.24-0.49-0.37-0.73
			c-0.42-0.76-0.94-1.45-1.47-2.14c-0.47-0.61-0.99-1.18-1.49-1.76c-0.64-0.73-1.27-1.46-1.93-2.17c-0.5-0.55-1-1.09-1.52-1.62
			c-1.14-1.15-2.4-2.18-3.76-3.07c-1.24-0.81-2.51-1.54-3.87-2.14c-1.58-0.69-3.17-1.34-4.86-1.69c-0.94-0.19-1.9-0.31-2.85-0.42
			c-0.76-0.08-1.52-0.12-2.29-0.12c-0.01,0-0.01,0-0.02,0c-1.75,0-3.52,0.23-5.24,0.52c-1.51,0.26-3.02,0.63-4.43,1.22
			c-1.61,0.67-3.16,1.43-4.65,2.34c-1.48,0.9-2.89,1.95-4.2,3.09c-1.29,1.13-2.39,2.4-3.41,3.77c-1.04,1.4-1.78,2.95-2.45,4.55
			c-0.56,1.34-0.98,2.73-1.23,4.16c-0.3,1.77-0.47,3.57-0.31,5.36c0.15,1.75,0.52,3.45,1.13,5.09c1.13,3.03,2.74,5.83,4.69,8.41
			c1.06,1.4,2.17,2.73,3.39,3.99c0.48,0.49,0.97,0.97,1.47,1.44c0.47,0.44,0.94,0.89,1.41,1.33c0.33,0.32,0.7,0.61,1.05,0.91
			c0.6,0.52,1.19,1.04,1.83,1.51c0.47,0.35,0.95,0.69,1.42,1.04c0.38,0.28,0.75,0.58,1.14,0.83c0.49,0.32,0.99,0.65,1.48,0.97
			c1.71,1.12,3.46,2.16,5.21,3.2c3.77,2.25,7.51,4.56,11.28,6.81c3.56,2.13,7.13,4.21,10.58,6.52c1.8,1.21,3.57,2.46,5.35,3.7
			c0.91,0.63,1.82,1.27,2.72,1.91c0.75,0.53,1.48,1.07,2.25,1.56c0.62,0.4,1.25,0.8,1.88,1.17c0.58,0.34,1.17,0.65,1.75,0.98
			c1.23,0.71,2.82,0.51,3.83-0.49c0.39-0.39,0.66-0.86,0.81-1.39c0.03-0.25,0.07-0.51,0.1-0.77c0.35-0.47,0.51-1.01,0.55-1.61
			c0.04-0.72,0.05-1.45,0.1-2.17c0.16-0.95,0.36-1.89,0.63-2.82c0.27-0.91,0.61-1.8,0.97-2.67c0.81-1.7,1.69-3.35,2.63-4.98
			c0.49-0.85,1.03-1.66,1.55-2.49c0.46-0.72,0.99-1.4,1.48-2.1C604.28,202.68,605.41,201.27,606.58,199.88z M601.33,195.9
			c-0.66,0.85-1.33,1.7-1.97,2.58c-0.61,0.83-1.25,1.64-1.81,2.5c-0.62,0.94-1.24,1.87-1.81,2.84c-0.55,0.94-1.06,1.88-1.57,2.84
			c-0.48,0.91-0.93,1.85-1.34,2.79c-0.5,1.15-1.04,2.3-1.43,3.49c-0.35,1.04-0.67,2.08-0.9,3.15c-0.03,0.14-0.06,0.27-0.08,0.41
			c-0.21-0.18-0.42-0.36-0.63-0.54c-0.59-0.5-1.22-0.95-1.83-1.43c-0.42-0.32-0.83-0.66-1.25-0.97c-0.8-0.59-1.6-1.18-2.41-1.76
			c-0.88-0.62-1.75-1.27-2.64-1.86c-0.88-0.58-1.74-1.19-2.64-1.74c-1.98-1.21-3.98-2.39-5.98-3.57c-0.91-0.53-1.85-1.03-2.78-1.54
			c-0.96-0.53-1.9-1.07-2.85-1.61c-1.7-0.95-3.37-1.95-5.06-2.91c-1.79-1.02-3.59-2.02-5.37-3.05c-0.93-0.54-1.88-1.05-2.79-1.62
			c-0.89-0.55-1.8-1.07-2.66-1.67c-0.71-0.5-1.43-1-2.14-1.5c-0.81-0.66-1.61-1.31-2.38-2.01c-0.54-0.49-1.07-0.98-1.61-1.47
			c-0.63-0.58-1.22-1.21-1.81-1.83c-0.52-0.56-1.01-1.14-1.48-1.74c-1.36-1.83-2.55-3.78-3.48-5.86c-0.45-1.14-0.8-2.32-1.01-3.53
			c-0.11-1.14-0.08-2.29,0.04-3.42c0.22-1.32,0.58-2.6,1.07-3.85c0.52-1.14,1.14-2.23,1.87-3.25c0.97-1.19,2.09-2.26,3.28-3.22
			c0.85-0.63,1.74-1.22,2.66-1.76c0.94-0.56,1.91-1.09,2.9-1.54c1.89-0.74,3.9-1.2,5.91-1.5c1.84-0.21,3.68-0.22,5.52-0.01
			c1.7,0.27,3.38,0.76,4.98,1.4c1.71,0.75,3.34,1.64,4.84,2.76c1.05,0.83,2.06,1.72,3.06,2.6c0.43,0.38,0.84,0.77,1.26,1.15
			c0.75,0.7,1.48,1.4,2.13,2.2c0.65,0.89,1.15,1.85,1.59,2.86c0.12,0.3,0.23,0.6,0.33,0.91c-0.19,0.64-0.02,1.42,0.3,1.97
			c0.35,0.6,0.94,1.06,1.61,1.24c0.7,0.19,1.46,0.09,2.08-0.27c0.18-0.14,0.36-0.28,0.55-0.42c0.34-0.34,0.57-0.74,0.7-1.19
			c0.55-1.47,1.08-2.96,1.68-4.41c1.09-2.49,2.51-4.86,4.14-7.02c1.51-1.9,3.19-3.66,5.09-5.17c1.02-0.76,2.1-1.42,3.26-1.95
			c1.41-0.55,2.87-0.93,4.36-1.16c1.39-0.16,2.77-0.18,4.16-0.03c1.24,0.2,2.44,0.54,3.61,1c1.08,0.49,2.1,1.06,3.06,1.75
			c0.68,0.57,1.29,1.2,1.85,1.89c0.68,0.94,1.26,1.95,1.74,3c0.45,1.2,0.72,2.46,0.92,3.72c0.17,1.48,0.21,2.97,0.05,4.45
			c-0.37,2.36-1.03,4.64-1.92,6.85c-0.79,1.78-1.73,3.49-2.71,5.17c-0.31,0.52-0.61,1.04-0.92,1.56c-0.23,0.39-0.49,0.76-0.74,1.13
			c-0.33,0.5-0.65,1-0.98,1.49c-0.27,0.41-0.58,0.79-0.86,1.19c-0.65,0.9-1.32,1.78-1.99,2.66c-0.12,0.15-0.23,0.3-0.35,0.45
			C605.59,190.3,603.46,193.11,601.33,195.9z"/>
		<path fill="#FFFFFF" d="M65.79,291.86c21.77-1.72,43.55-3.29,65.34-4.77l32.68-2.2c10.9-0.73,21.79-1.44,32.69-2.1
			c21.81-1.2,43.62-2.18,65.43-3.26l32.72-1.48c10.91-0.47,21.82-1,32.73-1.41c87.28-3.53,174.62-6.19,261.99-6.53l32.77,0.15
			l16.38,0.09c2.73,0,5.46,0.05,8.19,0.12l8.19,0.19l32.77,0.76l32.75,1.52c10.93,0.42,21.81,1.3,32.71,2.02l16.35,1.12l16.33,1.28
			c10.89,0.86,21.78,1.66,32.66,2.66l16.32,1.43c5.44,0.47,10.88,0.95,16.31,1.49c43.5,4.06,86.93,8.8,130.29,14.17
			c43.29,5.9,86.53,12.17,129.54,19.76c-10.79-1.64-21.61-3.14-32.43-4.62c-10.81-1.49-21.64-2.92-32.46-4.33
			c-21.66-2.75-43.33-5.4-65.02-7.82c-43.33-5.37-86.73-10.1-130.2-14.16c-5.43-0.54-10.87-1.02-16.3-1.49l-16.31-1.43
			c-10.87-1-21.75-1.8-32.63-2.66l-16.32-1.28l-16.33-1.12c-10.89-0.71-21.77-1.6-32.67-2.02l-32.68-1.52l-32.72-0.76l-8.18-0.19
			c-2.73-0.07-5.45-0.13-8.18-0.12l-16.37-0.09l-32.74-0.15c-87.31,0.34-174.62,3-261.88,6.53c-43.63,1.83-87.25,3.83-130.85,6.16
			l-65.44,2.89L65.79,291.86z"/>
	</g>
	<g>
		<path fill="#FFFFFF" d="M867.14,594H332.86c-17.52,0-31.72-14.2-31.72-31.72v0c0-17.52,14.2-31.72,31.72-31.72h534.29
			c17.52,0,31.72,14.2,31.72,31.72v0C898.86,579.8,884.66,594,867.14,594z"/>
		<g>
			<path d="M346.36,569.21c0.31,1.32,0.98,2.37,2.01,3.17c1.03,0.8,2.19,1.2,3.48,1.2c1.6,0,2.94-0.55,4.01-1.65
				c1.07-1.1,1.61-2.42,1.61-3.97c0-1.37-0.39-2.54-1.16-3.5c-0.77-0.97-1.77-1.61-2.98-1.92l-3.02-0.77
				c-1.47-0.39-2.67-1.18-3.58-2.38s-1.37-2.56-1.37-4.08c0-1.86,0.65-3.44,1.96-4.74c1.3-1.3,2.88-1.95,4.74-1.95
				c1.19,0,2.3,0.3,3.35,0.91c1.04,0.61,1.86,1.41,2.46,2.42l-1.86,1.04c-0.85-1.5-2.17-2.25-3.95-2.25c-1.27,0-2.34,0.46-3.23,1.37
				c-0.89,0.92-1.34,1.98-1.34,3.19c0,1.06,0.32,2,0.97,2.83c0.65,0.83,1.45,1.36,2.4,1.59l3.02,0.77c1.68,0.44,3.05,1.36,4.12,2.75
				c1.07,1.39,1.61,2.97,1.61,4.72c0,2.17-0.76,4-2.28,5.5c-1.52,1.5-3.34,2.25-5.46,2.25c-1.78,0-3.37-0.55-4.76-1.66
				c-1.39-1.11-2.31-2.53-2.75-4.26L346.36,569.21z"/>
			<path d="M377,573.19c-1.68,1.73-3.69,2.59-6.04,2.59c-2.27,0-4.23-0.83-5.88-2.48c-1.65-1.65-2.48-3.61-2.48-5.88
				c0-2.32,0.83-4.3,2.48-5.92c1.65-1.63,3.61-2.44,5.88-2.44c2.35,0,4.36,0.86,6.04,2.59l2.32-2.17v15.83L377,573.19z
				 M370.96,561.19c-1.76,0-3.23,0.6-4.43,1.8c-1.2,1.2-1.8,2.68-1.8,4.43c0,1.76,0.6,3.23,1.8,4.43c1.2,1.2,2.68,1.8,4.43,1.8
				c1.73,0,3.2-0.61,4.41-1.82c1.21-1.21,1.82-2.68,1.82-4.41c0-1.73-0.61-3.2-1.82-4.41C374.16,561.8,372.69,561.19,370.96,561.19z
				"/>
			<path d="M393.94,559.49h2.32l-6.97,16.34l-6.97-16.34h2.32l4.65,10.84L393.94,559.49z"/>
			<path d="M412.54,570.33l1.86,1.05c-0.7,1.32-1.7,2.38-3.02,3.19c-1.32,0.81-2.76,1.22-4.34,1.22c-2.27,0-4.23-0.83-5.88-2.48
				c-1.65-1.65-2.48-3.61-2.48-5.88c0-2.32,0.83-4.3,2.48-5.92c1.65-1.63,3.61-2.44,5.88-2.44c1.45,0,2.81,0.36,4.08,1.08
				c1.28,0.72,2.26,1.64,2.96,2.75l-10.8,9.52c1.08,0.83,2.34,1.24,3.75,1.24c1.19,0,2.26-0.3,3.23-0.89S412,571.36,412.54,570.33z
				 M401.86,570.91l9.25-8.21c-1.16-1.01-2.52-1.51-4.06-1.51c-1.76,0-3.23,0.6-4.43,1.8c-1.2,1.2-1.8,2.68-1.8,4.43
				C400.81,568.69,401.16,569.85,401.86,570.91z"/>
			<path d="M436.85,561.62h-2.86v-2.13h2.86v-4.45l2.13-1.04v5.5h2.83v2.13h-2.83v13.7h-2.13V561.62z"/>
			<path d="M455.88,565.37c0-1.21-0.41-2.21-1.22-3s-1.8-1.18-2.96-1.18c-1.16,0-2.15,0.41-2.96,1.22c-0.81,0.81-1.22,1.8-1.22,2.96
				v9.95h-2.13V549h2.13v11.65c1.19-1.06,2.58-1.59,4.18-1.59c1.78,0,3.28,0.61,4.49,1.82c1.21,1.21,1.82,2.71,1.82,4.49v9.95h-2.13
				V565.37z"/>
			<path d="M475.45,570.33l1.86,1.05c-0.7,1.32-1.7,2.38-3.02,3.19c-1.32,0.81-2.76,1.22-4.34,1.22c-2.27,0-4.23-0.83-5.88-2.48
				c-1.65-1.65-2.48-3.61-2.48-5.88c0-2.32,0.83-4.3,2.48-5.92c1.65-1.63,3.61-2.44,5.88-2.44c1.45,0,2.81,0.36,4.08,1.08
				c1.28,0.72,2.26,1.64,2.96,2.75l-10.8,9.52c1.08,0.83,2.34,1.24,3.75,1.24c1.19,0,2.26-0.3,3.23-0.89S474.9,571.36,475.45,570.33
				z M464.76,570.91l9.25-8.21c-1.16-1.01-2.52-1.51-4.06-1.51c-1.76,0-3.23,0.6-4.43,1.8c-1.2,1.2-1.8,2.68-1.8,4.43
				C463.72,568.69,464.07,569.85,464.76,570.91z"/>
			<path d="M498.17,549h5.11c1.86,0,3.58,0.34,5.17,1.03c1.59,0.68,2.97,1.62,4.16,2.81c1.19,1.19,2.12,2.58,2.81,4.16
				c0.68,1.59,1.03,3.31,1.03,5.17c0,2.38-0.59,4.57-1.76,6.6c-1.17,2.03-2.77,3.63-4.8,4.8c-2.03,1.17-4.23,1.76-6.6,1.76h-3.21
				v-24.2h-3.17L498.17,549z M503.28,573.19c2.01,0,3.86-0.49,5.56-1.47c1.69-0.98,3.03-2.32,4.01-4.03
				c0.98-1.7,1.47-3.55,1.47-5.54c0-1.5-0.3-2.94-0.89-4.32c-0.59-1.38-1.37-2.55-2.32-3.5c-0.96-0.95-2.12-1.73-3.5-2.32
				c-1.38-0.59-2.82-0.89-4.32-0.89h-1.08v22.07H503.28z"/>
			<path d="M533.84,573.19c-1.68,1.73-3.69,2.59-6.04,2.59c-2.27,0-4.23-0.83-5.88-2.48c-1.65-1.65-2.48-3.61-2.48-5.88
				c0-2.32,0.83-4.3,2.48-5.92c1.65-1.63,3.61-2.44,5.88-2.44c2.35,0,4.36,0.86,6.04,2.59l2.32-2.17v15.83L533.84,573.19z
				 M527.8,561.19c-1.76,0-3.23,0.6-4.43,1.8c-1.2,1.2-1.8,2.68-1.8,4.43c0,1.76,0.6,3.23,1.8,4.43c1.2,1.2,2.68,1.8,4.43,1.8
				c1.73,0,3.2-0.61,4.41-1.82c1.21-1.21,1.82-2.68,1.82-4.41c0-1.73-0.61-3.2-1.82-4.41C531,561.8,529.53,561.19,527.8,561.19z"/>
			<path d="M542.61,561.62h-2.86v-2.13h2.86v-4.45l2.13-1.04v5.5h2.83v2.13h-2.83v13.7h-2.13V561.62z"/>
			<path d="M564.43,570.33l1.86,1.05c-0.7,1.32-1.7,2.38-3.02,3.19c-1.32,0.81-2.76,1.22-4.34,1.22c-2.27,0-4.23-0.83-5.88-2.48
				c-1.65-1.65-2.48-3.61-2.48-5.88c0-2.32,0.83-4.3,2.48-5.92c1.65-1.63,3.61-2.44,5.88-2.44c1.45,0,2.81,0.36,4.08,1.08
				c1.28,0.72,2.26,1.64,2.96,2.75l-10.8,9.52c1.08,0.83,2.34,1.24,3.75,1.24c1.19,0,2.26-0.3,3.23-0.89
				S563.88,571.36,564.43,570.33z M553.74,570.91l9.25-8.21c-1.16-1.01-2.52-1.51-4.06-1.51c-1.76,0-3.23,0.6-4.43,1.8
				c-1.2,1.2-1.8,2.68-1.8,4.43C552.7,568.69,553.04,569.85,553.74,570.91z"/>
			<path d="M595,583.82h-1.58v-36.04H595V583.82z"/>
			<path d="M619.95,575.32V549h2.13v26.32H619.95z"/>
			<path d="M625.66,571.84l1.66-1.28c1.26,1.94,3.06,2.9,5.38,2.9c1.86,0,3.38-0.64,4.57-1.94c1.19-1.29,1.78-2.76,1.78-4.41
				c0-1.86-0.63-3.38-1.9-4.57c-1.26-1.19-2.75-1.78-4.45-1.78c-2.07,0-3.72,0.77-4.96,2.32l-1.66-0.97V549h12.19v2.13h-10.07v8.79
				c1.37-0.85,2.87-1.28,4.49-1.28c2.35,0,4.35,0.83,6,2.48c1.65,1.65,2.48,3.65,2.48,6c0,2.35-0.84,4.35-2.52,6
				c-1.68,1.65-3.67,2.48-5.96,2.48c-1.45,0-2.78-0.33-4.01-1.01C627.48,573.92,626.46,573,625.66,571.84z"/>
			<path d="M668.56,566.22v2.13h-7.24v-2.13H668.56z"/>
			<path d="M691.59,561.66h-2.9v-2.13h2.9v-4.76c0-1.06,0.26-2.03,0.77-2.9c0.52-0.88,1.21-1.57,2.09-2.09
				c0.88-0.52,1.84-0.77,2.9-0.77c1.24,0,2.37,0.37,3.41,1.12l-1.43,1.59c-0.57-0.39-1.23-0.58-1.97-0.58
				c-1.01,0-1.86,0.36-2.57,1.06c-0.71,0.71-1.06,1.57-1.06,2.57v4.76h2.86v2.13h-2.86v13.67h-2.13V561.66z"/>
			<path d="M714.02,570.33l1.86,1.05c-0.7,1.32-1.7,2.38-3.02,3.19s-2.76,1.22-4.34,1.22c-2.27,0-4.23-0.83-5.88-2.48
				c-1.65-1.65-2.48-3.61-2.48-5.88c0-2.32,0.83-4.3,2.48-5.92c1.65-1.63,3.61-2.44,5.88-2.44c1.45,0,2.81,0.36,4.08,1.08
				s2.26,1.64,2.96,2.75l-10.8,9.52c1.08,0.83,2.33,1.24,3.75,1.24c1.19,0,2.26-0.3,3.23-0.89S713.48,571.36,714.02,570.33z
				 M703.34,570.91l9.25-8.21c-1.16-1.01-2.52-1.51-4.06-1.51c-1.75,0-3.23,0.6-4.43,1.8s-1.8,2.68-1.8,4.43
				C702.29,568.69,702.64,569.85,703.34,570.91z"/>
			<path d="M721.55,551.13h-2.63l1.16-2.13h3.6v12.85c1.68-1.86,3.76-2.79,6.23-2.79c2.32,0,4.3,0.81,5.92,2.44s2.44,3.6,2.44,5.92
				c0,2.27-0.81,4.23-2.44,5.88s-3.6,2.48-5.92,2.48c-2.35,0-4.36-0.86-6.04-2.59l-2.32,2.13V551.13z M729.91,561.19
				c-1.73,0-3.2,0.61-4.41,1.82c-1.21,1.21-1.82,2.68-1.82,4.41c0,1.73,0.61,3.2,1.82,4.41c1.21,1.21,2.68,1.82,4.41,1.82
				c1.75,0,3.23-0.6,4.43-1.8s1.8-2.68,1.8-4.43c0-1.75-0.6-3.23-1.8-4.43S731.67,561.19,729.91,561.19z"/>
			<path d="M765.64,566.22v2.13h-7.24v-2.13H765.64z"/>
			<path d="M790.03,573.19h8.52v2.13h-12.19l9.99-17.27c0.41-0.77,0.62-1.55,0.62-2.32c0-1.34-0.46-2.45-1.39-3.31
				c-0.93-0.86-2-1.3-3.21-1.3c-0.93,0-1.74,0.23-2.44,0.68c-0.7,0.45-1.25,1.06-1.66,1.84l-1.86-1.01
				c0.62-1.16,1.44-2.06,2.46-2.69c1.02-0.63,2.19-0.95,3.5-0.95c1.91,0,3.51,0.65,4.8,1.94c1.29,1.29,1.94,2.89,1.94,4.8
				c0,1.19-0.28,2.28-0.85,3.29L790.03,573.19z"/>
			<path d="M815.76,548.46c2.5,0,4.8,0.61,6.89,1.84s3.75,2.88,4.97,4.96c1.23,2.08,1.84,4.37,1.84,6.87c0,2.5-0.61,4.8-1.84,6.89
				c-1.23,2.09-2.88,3.75-4.97,4.97c-2.09,1.23-4.39,1.84-6.89,1.84c-2.5,0-4.79-0.61-6.87-1.84c-2.08-1.23-3.73-2.88-4.96-4.97
				c-1.23-2.09-1.84-4.39-1.84-6.89c0-1.83,0.35-3.59,1.04-5.26c0.7-1.68,1.68-3.16,2.96-4.43c1.28-1.28,2.75-2.26,4.41-2.94
				C812.18,548.8,813.92,548.46,815.76,548.46z M815.76,550.58c-2.07,0-3.99,0.51-5.77,1.53c-1.78,1.02-3.19,2.43-4.22,4.24
				c-1.03,1.81-1.55,3.73-1.55,5.77c0,2.09,0.52,4.03,1.55,5.81c1.03,1.78,2.44,3.19,4.22,4.22c1.78,1.03,3.7,1.55,5.77,1.55
				c2.09,0,4.03-0.52,5.81-1.55c1.78-1.03,3.19-2.44,4.22-4.22c1.03-1.78,1.55-3.72,1.55-5.81c0-2.04-0.52-3.96-1.55-5.77
				s-2.44-3.22-4.22-4.24C819.78,551.09,817.85,550.58,815.76,550.58z"/>
			<path d="M833.04,575.32V549h2.13v26.32H833.04z"/>
			<path d="M844.67,575.32h-2.44l6.35-11.58c-0.7,0.23-1.46,0.35-2.28,0.35c-1.32,0-2.57-0.33-3.76-1.01
				c-1.19-0.67-2.12-1.6-2.79-2.79c-0.67-1.19-1.01-2.44-1.01-3.75s0.33-2.57,1.01-3.75c0.67-1.19,1.6-2.12,2.79-2.79
				c1.19-0.67,2.44-1.01,3.76-1.01c1.08,0,2.08,0.19,3,0.58c0.92,0.39,1.71,0.92,2.38,1.59c0.67,0.67,1.2,1.46,1.59,2.38
				s0.58,1.92,0.58,3c0,1.32-0.32,2.55-0.97,3.72L844.67,575.32z M846.3,561.97c0.98,0,1.88-0.25,2.71-0.74
				c0.83-0.49,1.48-1.15,1.97-1.97s0.74-1.73,0.74-2.71c0-0.98-0.25-1.88-0.74-2.71c-0.49-0.83-1.15-1.48-1.97-1.97
				c-0.83-0.49-1.73-0.74-2.71-0.74c-0.98,0-1.88,0.25-2.71,0.74c-0.83,0.49-1.48,1.15-1.97,1.97c-0.49,0.83-0.74,1.73-0.74,2.71
				c0,0.98,0.25,1.88,0.74,2.71s1.15,1.48,1.97,1.97C844.42,561.72,845.32,561.97,846.3,561.97z"/>
		</g>
	</g>
	<g>
		<path fill="#FFFFFF" d="M108.15,438.1c0.25-0.63,0.65-1.09,1.19-1.38c0.54-0.29,1.13-0.43,1.76-0.43c0.63,0,1.24,0.14,1.81,0.43
			c0.57,0.29,1.01,0.71,1.33,1.29c0.19,1.97,0.52,4.48,1,7.52c0.48,3.05,1.11,6.09,1.91,9.14c0.79,3.05,1.76,5.81,2.9,8.29
			s2.48,4.13,4,4.95c1.08-0.76,2.03-2.33,2.86-4.71c0.82-2.38,1.52-5.25,2.1-8.62s1-7.05,1.29-11.05c0.29-4,0.43-8,0.43-12v-3.62
			c0.32-1.21,0.76-1.81,1.33-1.81c0.19,0,0.38,0.09,0.57,0.29c0,4.89-0.14,9.9-0.43,15.05c-0.29,5.14-0.79,9.84-1.52,14.09
			c-0.73,4.25-1.73,7.75-3,10.48c-1.27,2.73-2.89,4.09-4.86,4.09c-1.46,0-2.76-0.51-3.9-1.52c-1.14-1.01-2.18-2.36-3.1-4.05
			c-0.92-1.68-1.73-3.59-2.43-5.71c-0.7-2.13-1.32-4.3-1.86-6.52c-0.54-2.22-0.99-4.41-1.33-6.57c-0.35-2.16-0.65-4.1-0.91-5.81
			c-0.89,5.27-1.92,9.73-3.09,13.38c-1.18,3.65-2.45,6.59-3.81,8.81c-1.37,2.22-2.78,3.83-4.24,4.81c-1.46,0.98-2.92,1.48-4.38,1.48
			c-1.46,0-2.7-0.68-3.71-2.05c-1.02-1.36-1.84-3.21-2.48-5.52c-0.64-2.32-1.13-5.01-1.48-8.09c-0.35-3.08-0.6-6.37-0.76-9.86
			c-0.16-3.49-0.25-7.09-0.29-10.81c-0.03-3.71-0.08-7.32-0.14-10.81c0-0.63,0.22-1.1,0.67-1.38c0.44-0.29,0.98-0.43,1.62-0.43
			c0.63,0,1.24,0.14,1.81,0.43c0.57,0.29,0.95,0.68,1.14,1.19c-0.06,1.78-0.11,3.49-0.14,5.14c-0.03,1.65-0.05,3.3-0.05,4.95
			c0,4.76,0.11,9.16,0.33,13.19c0.22,4.03,0.57,7.57,1.05,10.62c0.48,3.05,1.06,5.52,1.76,7.43c0.7,1.9,1.49,3.14,2.38,3.71
			c3.05-1.08,5.55-4.09,7.52-9.05C104.98,452.1,106.69,445.78,108.15,438.1z"/>
		<path fill="#FFFFFF" d="M162.06,462c0.32,0.89,0.86,1.89,1.62,3c0.76,1.11,1.68,1.76,2.76,1.95c1.78-0.25,3.6-1.24,5.48-2.95
			c1.87-1.71,3.7-4.48,5.48-8.29c0.7-1.52,1.21-2.29,1.52-2.29c0.19,0,0.29,0.25,0.29,0.76c0,0.32-0.03,0.65-0.09,1
			c-0.06,0.35-0.16,0.68-0.29,1c-1.14,2.54-2.27,4.62-3.38,6.24c-1.11,1.62-2.24,2.89-3.38,3.81s-2.29,1.56-3.43,1.9
			c-1.14,0.35-2.29,0.52-3.43,0.52c-2.99,0-5.22-1.05-6.71-3.14c-1.49-2.1-2.24-4.6-2.24-7.52c0-1.78,0.21-3.33,0.62-4.67
			c0.41-1.33,0.95-2.44,1.62-3.33c0.67-0.89,1.36-1.55,2.09-2c0.73-0.44,1.44-0.67,2.14-0.67c1.21,0,2.06,0.37,2.57,1.1
			c0.51,0.73,0.76,1.6,0.76,2.62c0,1.59-0.4,3.37-1.19,5.33C164.07,458.35,163.13,460.22,162.06,462z M164.25,451.24
			c0-0.32-0.1-0.67-0.29-1.05c-0.89,1.02-1.56,2.27-2,3.76c-0.44,1.49-0.67,2.78-0.67,3.86c0,0.32,0.01,0.64,0.05,0.95
			c0.03,0.32,0.08,0.64,0.14,0.95c0.76-1.46,1.41-2.95,1.95-4.48C163.97,453.72,164.25,452.38,164.25,451.24z"/>
		<path fill="#FFFFFF" d="M252.52,455.62c0.38-0.89,0.7-1.49,0.95-1.81c0.25-0.32,0.44-0.48,0.57-0.48c0.25,0,0.38,0.29,0.38,0.86
			c0,0.32-0.03,0.64-0.1,0.95c-0.06,0.32-0.16,0.64-0.29,0.95c-1.59,3.68-3.24,6.67-4.95,8.95c-1.71,2.29-3.71,3.43-6,3.43
			c-1.46,0-2.52-0.71-3.19-2.14s-1.09-3.29-1.29-5.57c-0.45,1.9-1.16,3.54-2.14,4.9c-0.98,1.37-2.43,2.05-4.33,2.05
			c-1.78,0-3-0.56-3.67-1.67c-0.67-1.11-1-2.43-1-3.95c0-1.78,0.29-3.52,0.86-5.24c0.57-1.71,1.3-3.21,2.19-4.48
			c0.89-1.27,1.89-2.3,3-3.09c1.11-0.79,2.24-1.19,3.38-1.19c0.57,0,1.14,0.13,1.71,0.38v-1.71c0-0.25,0.25-0.44,0.76-0.57
			c0.51-0.13,1.08-0.19,1.71-0.19c0.63,0,1.19,0.06,1.67,0.19c0.48,0.13,0.71,0.29,0.71,0.48c-0.06,1.27-0.11,2.56-0.14,3.86
			c-0.03,1.3-0.05,2.59-0.05,3.86c0,2.86,0.13,5.41,0.38,7.67c0.25,2.25,0.76,3.73,1.52,4.43c1.27-0.76,2.51-2.09,3.71-4
			C250.11,460.57,251.32,458.29,252.52,455.62z M238.53,450c-0.83,0.38-1.62,1-2.38,1.86s-1.45,1.83-2.05,2.9
			c-0.6,1.08-1.08,2.24-1.43,3.48c-0.35,1.24-0.52,2.4-0.52,3.48c0,1.97,0.6,3.37,1.81,4.19c0.7-0.32,1.3-0.95,1.81-1.9
			c0.51-0.95,0.94-2.08,1.29-3.38c0.35-1.3,0.62-2.68,0.81-4.14c0.19-1.46,0.35-2.86,0.48-4.19L238.53,450z"/>
		<path fill="#FFFFFF" d="M273.09,455.81c-0.38,0.7-0.7,1.05-0.95,1.05c-0.25,0-0.38-0.32-0.38-0.95c0-0.57,0.13-1.11,0.38-1.62
			l1.71-4.19c-0.57-0.57-0.92-1.46-1.05-2.67c0-0.44,0.19-0.67,0.57-0.67c0.19,0,0.35,0.16,0.48,0.48c0.25,0.95,0.92,1.57,2,1.86
			c1.08,0.29,2.24,0.52,3.48,0.71c1.24,0.19,2.36,0.46,3.38,0.81c1.01,0.35,1.59,1.06,1.71,2.14c0,0.32-0.03,1.08-0.09,2.29
			c-0.06,1.21-0.1,2.54-0.1,4c0,1.65,0.1,3.24,0.29,4.76c0.19,1.52,0.57,2.6,1.14,3.24c1.46-0.7,2.84-2.05,4.14-4.05
			c1.3-2,2.59-4.46,3.86-7.38c0.38-0.89,0.7-1.49,0.95-1.81c0.25-0.32,0.44-0.48,0.57-0.48c0.25,0,0.38,0.29,0.38,0.86
			c0,0.32-0.03,0.64-0.1,0.95c-0.06,0.32-0.16,0.64-0.29,0.95c-0.76,1.84-1.59,3.57-2.48,5.19c-0.89,1.62-1.84,3.03-2.86,4.24
			c-1.02,1.21-2.06,2.16-3.14,2.86c-1.08,0.7-2.19,1.05-3.33,1.05c-0.89,0-1.59-0.3-2.09-0.9c-0.51-0.6-0.9-1.38-1.19-2.33
			c-0.29-0.95-0.46-2.06-0.52-3.33c-0.06-1.27-0.1-2.57-0.1-3.91v-3.9c0-0.83-0.09-1.48-0.29-1.95s-0.46-0.82-0.81-1.05
			c-0.35-0.22-0.79-0.41-1.33-0.57c-0.54-0.16-1.13-0.37-1.76-0.62c-0.19,0.38-0.44,0.97-0.76,1.76
			C274.21,453.42,273.73,454.48,273.09,455.81z"/>
		<path fill="#FFFFFF" d="M318.24,462c0.32,0.89,0.86,1.89,1.62,3c0.76,1.11,1.68,1.76,2.76,1.95c1.78-0.25,3.6-1.24,5.48-2.95
			c1.87-1.71,3.7-4.48,5.48-8.29c0.7-1.52,1.21-2.29,1.52-2.29c0.19,0,0.29,0.25,0.29,0.76c0,0.32-0.03,0.65-0.09,1
			c-0.06,0.35-0.16,0.68-0.29,1c-1.14,2.54-2.27,4.62-3.38,6.24c-1.11,1.62-2.24,2.89-3.38,3.81s-2.29,1.56-3.43,1.9
			c-1.14,0.35-2.29,0.52-3.43,0.52c-2.99,0-5.22-1.05-6.71-3.14c-1.49-2.1-2.24-4.6-2.24-7.52c0-1.78,0.21-3.33,0.62-4.67
			c0.41-1.33,0.95-2.44,1.62-3.33c0.67-0.89,1.36-1.55,2.09-2c0.73-0.44,1.44-0.67,2.14-0.67c1.21,0,2.06,0.37,2.57,1.1
			c0.51,0.73,0.76,1.6,0.76,2.62c0,1.59-0.4,3.37-1.19,5.33C320.25,458.35,319.31,460.22,318.24,462z M320.43,451.24
			c0-0.32-0.1-0.67-0.29-1.05c-0.89,1.02-1.56,2.27-2,3.76c-0.44,1.49-0.67,2.78-0.67,3.86c0,0.32,0.01,0.64,0.05,0.95
			c0.03,0.32,0.08,0.64,0.14,0.95c0.76-1.46,1.41-2.95,1.95-4.48C320.15,453.72,320.43,452.38,320.43,451.24z"/>
		<path fill="#FFFFFF" d="M398.13,473.05c0-1.97,0.01-4.19,0.05-6.67c0.03-2.48,0.05-5.14,0.05-8c-0.51,1.14-1.1,2.29-1.76,3.43
			c-0.67,1.14-1.4,2.14-2.19,3c-0.79,0.86-1.62,1.56-2.48,2.1c-0.86,0.54-1.73,0.81-2.62,0.81c-0.95,0-1.78-0.22-2.48-0.67
			c-0.7-0.44-1.29-1.01-1.76-1.71c-0.48-0.7-0.83-1.43-1.05-2.19c-0.22-0.76-0.33-1.49-0.33-2.19c0-1.21,0.27-2.55,0.81-4.05
			c0.54-1.49,1.24-2.89,2.09-4.19c0.86-1.3,1.86-2.4,3-3.29s2.32-1.33,3.52-1.33c1.27,0,2.27,0.33,3,1
			c0.73,0.67,1.09,1.16,1.09,1.48c0,0.19-0.06,0.29-0.19,0.29c-0.13,0-0.33-0.11-0.62-0.33c-0.29-0.22-0.68-0.39-1.19-0.52
			c-0.89,0.32-1.71,0.87-2.48,1.67c-0.76,0.79-1.43,1.71-2,2.76s-1.03,2.16-1.38,3.33c-0.35,1.18-0.52,2.3-0.52,3.38
			c0,1.02,0.17,1.9,0.52,2.67c0.35,0.76,0.91,1.33,1.67,1.71c0.76-0.38,1.49-0.94,2.19-1.67c0.7-0.73,1.35-1.59,1.95-2.57
			c0.6-0.98,1.17-2.05,1.71-3.19c0.54-1.14,1-2.29,1.38-3.43c0-0.63-0.02-1.27-0.05-1.91c-0.03-0.63-0.05-1.3-0.05-2
			c0-0.7,0.19-1.19,0.57-1.48s0.86-0.43,1.43-0.43c0.63,0,1.22,0.11,1.76,0.33c0.54,0.22,0.87,0.4,1,0.52c0,0.57,0.01,1.54,0.05,2.9
			c0.03,1.37,0.06,2.95,0.1,4.76c0.03,1.81,0.06,3.76,0.09,5.86c0.03,2.09,0.05,4.13,0.05,6.09c1.78-2.35,3.22-4.49,4.33-6.43
			c1.11-1.94,2-3.6,2.67-5c0.67-1.4,1.17-2.46,1.52-3.19c0.35-0.73,0.68-1.1,1-1.1c0.19,0,0.29,0.29,0.29,0.86
			c0,0.57-0.1,1.08-0.29,1.52c-1.08,2.86-2.46,5.6-4.14,8.24c-1.68,2.63-3.48,5.22-5.38,7.76c-0.06,2.98-0.19,6.11-0.38,9.38
			c-0.19,3.27-0.6,6.27-1.24,9c-0.63,2.73-1.6,4.98-2.9,6.76c-1.3,1.78-3.09,2.67-5.38,2.67c-1.65,0-3.13-0.4-4.43-1.19
			c-1.3-0.79-1.95-2.11-1.95-3.95c0-1.65,0.54-3.57,1.62-5.76c1.08-2.19,2.89-4.81,5.43-7.86l4.29-5.24V473.05z M390.51,497.52
			c0.57,0.19,1.08,0.29,1.52,0.29c2.03,0,3.49-1.75,4.38-5.24c0.89-3.49,1.43-8.22,1.62-14.19l-2.86,3.62
			c-2.41,3.05-4.13,5.59-5.14,7.62c-1.02,2.03-1.52,3.65-1.52,4.86C388.51,496,389.18,497.01,390.51,497.52z"/>
		<path fill="#FFFFFF" d="M435.65,462c0.32,0.89,0.86,1.89,1.62,3c0.76,1.11,1.68,1.76,2.76,1.95c1.78-0.25,3.6-1.24,5.48-2.95
			c1.87-1.71,3.7-4.48,5.48-8.29c0.7-1.52,1.21-2.29,1.52-2.29c0.19,0,0.29,0.25,0.29,0.76c0,0.32-0.03,0.65-0.1,1
			c-0.06,0.35-0.16,0.68-0.29,1c-1.14,2.54-2.27,4.62-3.38,6.24c-1.11,1.62-2.24,2.89-3.38,3.81c-1.14,0.92-2.29,1.56-3.43,1.9
			c-1.14,0.35-2.29,0.52-3.43,0.52c-2.98,0-5.22-1.05-6.71-3.14c-1.49-2.1-2.24-4.6-2.24-7.52c0-1.78,0.21-3.33,0.62-4.67
			c0.41-1.33,0.95-2.44,1.62-3.33c0.67-0.89,1.36-1.55,2.1-2c0.73-0.44,1.44-0.67,2.14-0.67c1.21,0,2.06,0.37,2.57,1.1
			c0.51,0.73,0.76,1.6,0.76,2.62c0,1.59-0.4,3.37-1.19,5.33C437.67,458.35,436.73,460.22,435.65,462z M437.84,451.24
			c0-0.32-0.09-0.67-0.29-1.05c-0.89,1.02-1.56,2.27-2,3.76c-0.45,1.49-0.67,2.78-0.67,3.86c0,0.32,0.01,0.64,0.05,0.95
			c0.03,0.32,0.08,0.64,0.14,0.95c0.76-1.46,1.41-2.95,1.95-4.48C437.57,453.72,437.84,452.38,437.84,451.24z"/>
		<path fill="#FFFFFF" d="M472.13,432.19c0-0.25,0.21-0.43,0.62-0.52c0.41-0.1,0.87-0.14,1.38-0.14c0.7,0,1.35,0.06,1.95,0.19
			c0.6,0.13,0.97,0.32,1.1,0.57c-0.32,2.22-0.6,4.59-0.86,7.09c-0.25,2.51-0.44,5.03-0.57,7.57c1.91-0.19,2.92-0.35,3.05-0.48
			c0.63,0,0.95,0.32,0.95,0.95c0,0.13,0.03,0.22,0.09,0.29c0.06,0.06,0,0.14-0.19,0.24c-0.19,0.09-0.59,0.19-1.19,0.29
			c-0.6,0.1-1.54,0.24-2.81,0.43c-0.06,0.95-0.1,1.89-0.1,2.81c0,0.92,0,1.83,0,2.71c0,3.18,0.16,5.94,0.48,8.29
			c0.32,2.35,0.92,3.9,1.81,4.67c1.27-0.57,2.68-1.78,4.24-3.62c1.55-1.84,3.13-4.48,4.71-7.9c0.38-0.89,0.7-1.49,0.95-1.81
			c0.25-0.32,0.44-0.48,0.57-0.48c0.25,0,0.38,0.29,0.38,0.86c0,0.32-0.03,0.64-0.1,0.95c-0.06,0.32-0.16,0.64-0.29,0.95
			c-0.89,1.78-1.79,3.46-2.71,5.05c-0.92,1.59-1.9,2.98-2.95,4.19c-1.05,1.21-2.16,2.17-3.33,2.91c-1.18,0.73-2.43,1.09-3.76,1.09
			c-1.65,0-2.89-1.3-3.71-3.9c-0.83-2.6-1.24-6.44-1.24-11.52c0-0.76,0-1.54,0-2.33c0-0.79,0.03-1.63,0.1-2.52
			c-0.51,0.06-0.99,0.11-1.43,0.14c-0.45,0.03-0.92,0.05-1.43,0.05c-0.57,0-0.86-0.22-0.86-0.67c0-0.57,0.22-0.92,0.67-1.05
			l3.14-0.19c0-1.52,0.06-3.03,0.19-4.52c0.13-1.49,0.25-2.92,0.38-4.29c0.13-1.37,0.27-2.59,0.43-3.67
			C471.95,433.78,472.06,432.89,472.13,432.19z"/>
		<path fill="#FFFFFF" d="M507.93,432.19c0-0.25,0.21-0.43,0.62-0.52c0.41-0.1,0.87-0.14,1.38-0.14c0.7,0,1.35,0.06,1.95,0.19
			c0.6,0.13,0.97,0.32,1.09,0.57c-0.32,2.22-0.6,4.59-0.86,7.09c-0.25,2.51-0.45,5.03-0.57,7.57c1.9-0.19,2.92-0.35,3.05-0.48
			c0.63,0,0.95,0.32,0.95,0.95c0,0.13,0.03,0.22,0.1,0.29c0.06,0.06,0,0.14-0.19,0.24c-0.19,0.09-0.59,0.19-1.19,0.29
			c-0.6,0.1-1.54,0.24-2.81,0.43c-0.06,0.95-0.09,1.89-0.09,2.81c0,0.92,0,1.83,0,2.71c0,3.18,0.16,5.94,0.48,8.29
			c0.32,2.35,0.92,3.9,1.81,4.67c1.27-0.57,2.68-1.78,4.24-3.62c1.55-1.84,3.13-4.48,4.71-7.9c0.38-0.89,0.7-1.49,0.95-1.81
			c0.25-0.32,0.44-0.48,0.57-0.48c0.25,0,0.38,0.29,0.38,0.86c0,0.32-0.03,0.64-0.09,0.95c-0.06,0.32-0.16,0.64-0.29,0.95
			c-0.89,1.78-1.79,3.46-2.71,5.05c-0.92,1.59-1.9,2.98-2.95,4.19s-2.16,2.17-3.33,2.91c-1.18,0.73-2.43,1.09-3.76,1.09
			c-1.65,0-2.89-1.3-3.71-3.9c-0.83-2.6-1.24-6.44-1.24-11.52c0-0.76,0-1.54,0-2.33c0-0.79,0.03-1.63,0.09-2.52
			c-0.51,0.06-0.99,0.11-1.43,0.14c-0.44,0.03-0.92,0.05-1.43,0.05c-0.57,0-0.86-0.22-0.86-0.67c0-0.57,0.22-0.92,0.67-1.05
			l3.14-0.19c0-1.52,0.06-3.03,0.19-4.52c0.13-1.49,0.25-2.92,0.38-4.29c0.13-1.37,0.27-2.59,0.43-3.67
			C507.76,433.78,507.87,432.89,507.93,432.19z"/>
		<path fill="#FFFFFF" d="M557.74,455.62c0.38-0.89,0.7-1.49,0.95-1.81c0.25-0.32,0.44-0.48,0.57-0.48c0.25,0,0.38,0.29,0.38,0.86
			c0,0.32-0.03,0.64-0.09,0.95c-0.06,0.32-0.16,0.64-0.29,0.95c-1.65,3.94-3.59,7.19-5.81,9.76c-2.22,2.57-4.57,3.86-7.05,3.86
			c-0.83-0.06-1.51-0.49-2.05-1.29c-0.54-0.79-0.95-1.81-1.24-3.05c-0.29-1.24-0.49-2.6-0.62-4.1c-0.13-1.49-0.19-2.97-0.19-4.43
			c0-0.82-0.02-1.57-0.05-2.24c-0.03-0.67-0.05-1.25-0.05-1.76c0-1.33,0.17-2.3,0.52-2.9c0.35-0.6,1.19-0.91,2.52-0.91
			c0.51,0,0.97,0.05,1.38,0.14c0.41,0.09,0.62,0.24,0.62,0.43c-0.06,0.89-0.13,2-0.19,3.33c-0.06,1.33-0.1,2.73-0.1,4.19
			c0,1.08,0.03,2.16,0.1,3.24c0.06,1.08,0.16,2.08,0.29,3c0.13,0.92,0.33,1.73,0.62,2.43c0.29,0.7,0.62,1.24,1,1.62
			c1.52-0.76,3.03-2.19,4.52-4.29C554.99,461.05,556.41,458.54,557.74,455.62z M547.84,445.72c-0.13,0.32-0.43,0.56-0.91,0.71
			c-0.48,0.16-1,0.24-1.57,0.24c-0.83,0-1.51-0.11-2.05-0.33c-0.54-0.22-0.81-0.55-0.81-1c0.13-0.44,0.46-0.78,1-1
			c0.54-0.22,1.16-0.33,1.86-0.33c0.7,0,1.29,0.1,1.76,0.29c0.48,0.19,0.71,0.54,0.71,1.05V445.72z"/>
		<path fill="#FFFFFF" d="M578.12,445.62c0-0.32,0.19-0.54,0.57-0.67c0.38-0.13,0.82-0.19,1.33-0.19c0.7,0,1.33,0.08,1.9,0.24
			c0.57,0.16,0.89,0.4,0.95,0.71c-0.13,1.33-0.24,2.56-0.33,3.67c-0.09,1.11-0.18,2.18-0.24,3.19c-0.06,1.02-0.11,2.02-0.14,3
			c-0.03,0.99-0.08,2.02-0.14,3.09c0.51-1.08,1.05-2.14,1.62-3.19c0.57-1.05,1.17-1.98,1.81-2.81c0.63-0.82,1.3-1.49,2-2
			c0.7-0.51,1.43-0.76,2.19-0.76c1.27,0,2.19,0.71,2.76,2.14c0.57,1.43,0.92,2.91,1.05,4.43c0.25,2.41,0.55,4.6,0.91,6.57
			c0.35,1.97,0.87,3.3,1.57,4c1.4-0.7,2.67-2.06,3.81-4.09c1.14-2.03,2.35-4.48,3.62-7.33c0.38-0.89,0.7-1.49,0.95-1.81
			c0.25-0.32,0.44-0.48,0.57-0.48c0.25,0,0.38,0.29,0.38,0.86c0,0.32-0.03,0.64-0.09,0.95c-0.06,0.32-0.16,0.64-0.29,0.95
			c-0.76,1.84-1.56,3.56-2.38,5.14c-0.83,1.59-1.67,2.97-2.52,4.14c-0.86,1.18-1.76,2.09-2.71,2.76c-0.95,0.67-2,1-3.14,1
			c-1.02,0-1.86-0.41-2.52-1.24c-0.67-0.82-1.19-1.84-1.57-3.05c-0.38-1.21-0.67-2.54-0.86-4c-0.19-1.46-0.35-2.79-0.48-4
			c-0.13-1.21-0.25-2.22-0.38-3.05c-0.13-0.82-0.32-1.24-0.57-1.24c-0.38,0-0.92,0.59-1.62,1.76c-0.7,1.17-1.4,2.52-2.09,4.05
			c-0.7,1.52-1.4,3.05-2.1,4.57c-0.7,1.52-1.24,2.64-1.62,3.33c-0.51,0.83-0.92,1.35-1.24,1.57c-0.32,0.22-0.67,0.33-1.05,0.33
			c-0.57,0-0.84-0.25-0.81-0.76c0.03-0.51,0.05-0.98,0.05-1.43c0-1.78,0.01-3.68,0.05-5.71c0.03-2.03,0.09-4,0.19-5.9
			c0.09-1.9,0.19-3.63,0.29-5.19C577.88,447.64,577.99,446.45,578.12,445.62z"/>
		<path fill="#FFFFFF" d="M635.64,473.05c0-1.97,0.02-4.19,0.05-6.67c0.03-2.48,0.05-5.14,0.05-8c-0.51,1.14-1.1,2.29-1.76,3.43
			c-0.67,1.14-1.4,2.14-2.19,3c-0.79,0.86-1.62,1.56-2.48,2.1c-0.86,0.54-1.73,0.81-2.62,0.81c-0.95,0-1.78-0.22-2.48-0.67
			c-0.7-0.44-1.29-1.01-1.76-1.71c-0.48-0.7-0.83-1.43-1.05-2.19c-0.22-0.76-0.33-1.49-0.33-2.19c0-1.21,0.27-2.55,0.81-4.05
			c0.54-1.49,1.24-2.89,2.09-4.19c0.86-1.3,1.86-2.4,3-3.29s2.32-1.33,3.52-1.33c1.27,0,2.27,0.33,3,1c0.73,0.67,1.1,1.16,1.1,1.48
			c0,0.19-0.06,0.29-0.19,0.29c-0.13,0-0.33-0.11-0.62-0.33c-0.29-0.22-0.68-0.39-1.19-0.52c-0.89,0.32-1.71,0.87-2.48,1.67
			c-0.76,0.79-1.43,1.71-2,2.76c-0.57,1.05-1.03,2.16-1.38,3.33c-0.35,1.18-0.52,2.3-0.52,3.38c0,1.02,0.17,1.9,0.52,2.67
			c0.35,0.76,0.91,1.33,1.67,1.71c0.76-0.38,1.49-0.94,2.19-1.67c0.7-0.73,1.35-1.59,1.95-2.57c0.6-0.98,1.17-2.05,1.71-3.19
			c0.54-1.14,1-2.29,1.38-3.43c0-0.63-0.02-1.27-0.05-1.91c-0.03-0.63-0.05-1.3-0.05-2c0-0.7,0.19-1.19,0.57-1.48
			s0.86-0.43,1.43-0.43c0.63,0,1.22,0.11,1.76,0.33c0.54,0.22,0.87,0.4,1,0.52c0,0.57,0.01,1.54,0.05,2.9
			c0.03,1.37,0.06,2.95,0.09,4.76c0.03,1.81,0.06,3.76,0.1,5.86c0.03,2.09,0.05,4.13,0.05,6.09c1.78-2.35,3.22-4.49,4.33-6.43
			c1.11-1.94,2-3.6,2.67-5c0.67-1.4,1.17-2.46,1.52-3.19c0.35-0.73,0.68-1.1,1-1.1c0.19,0,0.29,0.29,0.29,0.86
			c0,0.57-0.1,1.08-0.29,1.52c-1.08,2.86-2.46,5.6-4.14,8.24c-1.68,2.63-3.48,5.22-5.38,7.76c-0.06,2.98-0.19,6.11-0.38,9.38
			c-0.19,3.27-0.6,6.27-1.24,9c-0.64,2.73-1.6,4.98-2.91,6.76c-1.3,1.78-3.09,2.67-5.38,2.67c-1.65,0-3.13-0.4-4.43-1.19
			c-1.3-0.79-1.95-2.11-1.95-3.95c0-1.65,0.54-3.57,1.62-5.76c1.08-2.19,2.89-4.81,5.43-7.86l4.29-5.24V473.05z M628.02,497.52
			c0.57,0.19,1.08,0.29,1.52,0.29c2.03,0,3.49-1.75,4.38-5.24c0.89-3.49,1.43-8.22,1.62-14.19l-2.86,3.62
			c-2.41,3.05-4.13,5.59-5.14,7.62c-1.02,2.03-1.52,3.65-1.52,4.86C626.02,496,626.69,497.01,628.02,497.52z"/>
		<path fill="#FFFFFF" d="M705.06,458.29c0,2.16,0,3.87,0,5.14c0,1.27-0.02,2.27-0.05,3c-0.03,0.73-0.05,1.27-0.05,1.62
			c0,0.35,0,0.65,0,0.9c0,0.32-0.3,0.57-0.9,0.76c-0.6,0.19-1.25,0.29-1.95,0.29c-0.51,0-0.94-0.08-1.29-0.24
			c-0.35-0.16-0.52-0.43-0.52-0.81c0-1.78,0.01-3.82,0.05-6.14c0.03-2.32,0.09-4.6,0.19-6.86c0.09-2.25,0.19-4.32,0.29-6.19
			c0.1-1.87,0.21-3.25,0.33-4.14c0-0.25,0.19-0.43,0.57-0.52s0.82-0.14,1.33-0.14c0.63,0,1.24,0.06,1.81,0.19
			c0.57,0.13,0.89,0.32,0.95,0.57c-0.19,1.65-0.32,3.16-0.38,4.52c-0.06,1.37-0.13,2.68-0.19,3.95c0.7-1.21,1.46-2.36,2.29-3.48
			c0.82-1.11,1.68-2.1,2.57-2.95c0.89-0.86,1.79-1.54,2.71-2.05c0.92-0.51,1.79-0.76,2.62-0.76c0.95,0,1.73,0.35,2.33,1.05
			c0.6,0.7,1.06,1.64,1.38,2.81c0.32,1.17,0.54,2.51,0.67,4c0.13,1.49,0.19,3,0.19,4.52c0,0.57-0.02,1.14-0.05,1.71
			c-0.03,0.57-0.05,1.11-0.05,1.62c0.44-1.01,0.94-2.05,1.48-3.09c0.54-1.05,1.11-1.98,1.71-2.81c0.6-0.82,1.24-1.49,1.9-2
			c0.67-0.51,1.41-0.76,2.24-0.76c1.27,0,2.16,0.68,2.67,2.05c0.51,1.37,0.82,2.87,0.95,4.52c0.13,2.41,0.38,4.57,0.76,6.48
			c0.38,1.91,0.92,3.24,1.62,4c0.76-0.45,1.52-1.13,2.29-2.05s1.49-1.97,2.19-3.14c0.7-1.17,1.4-2.48,2.09-3.91
			c0.7-1.43,1.37-2.87,2-4.33c0.38-0.89,0.7-1.49,0.95-1.81c0.25-0.32,0.44-0.48,0.57-0.48c0.25,0,0.38,0.29,0.38,0.86
			c0,0.32-0.03,0.64-0.1,0.95c-0.06,0.32-0.16,0.64-0.29,0.95c-0.76,1.84-1.6,3.65-2.52,5.43c-0.92,1.78-1.87,3.38-2.86,4.81
			c-0.99,1.43-2.03,2.59-3.14,3.48c-1.11,0.89-2.24,1.33-3.38,1.33c-1.02,0-1.83-0.41-2.43-1.24c-0.6-0.83-1.1-1.84-1.48-3.05
			c-0.38-1.21-0.67-2.52-0.86-3.95c-0.19-1.43-0.35-2.75-0.48-3.95c-0.13-1.21-0.25-2.22-0.38-3.05c-0.13-0.82-0.32-1.24-0.57-1.24
			c-0.38,0-0.91,0.59-1.57,1.76c-0.67,1.17-1.38,2.52-2.14,4.05c-0.76,1.52-1.48,3.05-2.14,4.57c-0.67,1.52-1.19,2.64-1.57,3.33
			c-0.7,1.27-1.27,1.9-1.71,1.9c-0.38,0-0.64-0.51-0.76-1.52c-0.13-1.02-0.19-2.32-0.19-3.9c0-1.21,0.01-2.49,0.05-3.86
			c0.03-1.37,0.05-2.71,0.05-4.05c0-2.41-0.13-4.52-0.38-6.33c-0.25-1.81-0.83-2.71-1.71-2.71c-0.51,0-1.11,0.3-1.81,0.91
			c-0.7,0.6-1.43,1.38-2.19,2.33c-0.76,0.95-1.49,2.02-2.19,3.19c-0.7,1.17-1.33,2.3-1.9,3.38V458.29z"/>
		<path fill="#FFFFFF" d="M784.68,455.62c0.38-0.89,0.7-1.49,0.95-1.81c0.25-0.32,0.44-0.48,0.57-0.48c0.25,0,0.38,0.29,0.38,0.86
			c0,0.32-0.03,0.64-0.09,0.95c-0.06,0.32-0.16,0.64-0.29,0.95c-1.59,3.68-3.24,6.67-4.95,8.95c-1.71,2.29-3.71,3.43-6,3.43
			c-1.46,0-2.52-0.71-3.19-2.14c-0.67-1.43-1.1-3.29-1.29-5.57c-0.44,1.9-1.16,3.54-2.14,4.9c-0.99,1.37-2.43,2.05-4.33,2.05
			c-1.78,0-3-0.56-3.67-1.67c-0.67-1.11-1-2.43-1-3.95c0-1.78,0.29-3.52,0.86-5.24c0.57-1.71,1.3-3.21,2.19-4.48
			c0.89-1.27,1.89-2.3,3-3.09c1.11-0.79,2.24-1.19,3.38-1.19c0.57,0,1.14,0.13,1.71,0.38v-1.71c0-0.25,0.25-0.44,0.76-0.57
			c0.51-0.13,1.08-0.19,1.71-0.19c0.63,0,1.19,0.06,1.67,0.19c0.48,0.13,0.71,0.29,0.71,0.48c-0.06,1.27-0.11,2.56-0.14,3.86
			c-0.03,1.3-0.05,2.59-0.05,3.86c0,2.86,0.13,5.41,0.38,7.67c0.25,2.25,0.76,3.73,1.52,4.43c1.27-0.76,2.51-2.09,3.71-4
			C782.27,460.57,783.47,458.29,784.68,455.62z M770.68,450c-0.83,0.38-1.62,1-2.38,1.86s-1.45,1.83-2.05,2.9
			c-0.6,1.08-1.08,2.24-1.43,3.48c-0.35,1.24-0.52,2.4-0.52,3.48c0,1.97,0.6,3.37,1.81,4.19c0.7-0.32,1.3-0.95,1.81-1.9
			c0.51-0.95,0.94-2.08,1.29-3.38c0.35-1.3,0.62-2.68,0.81-4.14c0.19-1.46,0.35-2.86,0.48-4.19L770.68,450z"/>
		<path fill="#FFFFFF" d="M805.25,455.81c-0.38,0.7-0.7,1.05-0.95,1.05c-0.25,0-0.38-0.32-0.38-0.95c0-0.57,0.13-1.11,0.38-1.62
			l1.71-4.19c-0.57-0.57-0.92-1.46-1.05-2.67c0-0.44,0.19-0.67,0.57-0.67c0.19,0,0.35,0.16,0.48,0.48c0.25,0.95,0.92,1.57,2,1.86
			c1.08,0.29,2.24,0.52,3.48,0.71c1.24,0.19,2.36,0.46,3.38,0.81c1.01,0.35,1.59,1.06,1.71,2.14c0,0.32-0.03,1.08-0.09,2.29
			c-0.06,1.21-0.1,2.54-0.1,4c0,1.65,0.1,3.24,0.29,4.76c0.19,1.52,0.57,2.6,1.14,3.24c1.46-0.7,2.84-2.05,4.14-4.05
			c1.3-2,2.59-4.46,3.86-7.38c0.38-0.89,0.7-1.49,0.95-1.81c0.25-0.32,0.44-0.48,0.57-0.48c0.25,0,0.38,0.29,0.38,0.86
			c0,0.32-0.03,0.64-0.09,0.95c-0.06,0.32-0.16,0.64-0.29,0.95c-0.76,1.84-1.59,3.57-2.48,5.19c-0.89,1.62-1.84,3.03-2.86,4.24
			c-1.02,1.21-2.06,2.16-3.14,2.86c-1.08,0.7-2.19,1.05-3.33,1.05c-0.89,0-1.59-0.3-2.1-0.9c-0.51-0.6-0.9-1.38-1.19-2.33
			c-0.29-0.95-0.46-2.06-0.52-3.33c-0.06-1.27-0.1-2.57-0.1-3.91v-3.9c0-0.83-0.09-1.48-0.29-1.95s-0.46-0.82-0.81-1.05
			c-0.35-0.22-0.79-0.41-1.33-0.57c-0.54-0.16-1.13-0.37-1.76-0.62c-0.19,0.38-0.45,0.97-0.76,1.76
			C806.36,453.42,805.88,454.48,805.25,455.81z"/>
		<path fill="#FFFFFF" d="M846.39,455.81c-0.38,0.7-0.7,1.05-0.95,1.05c-0.25,0-0.38-0.32-0.38-0.95c0-0.57,0.13-1.11,0.38-1.62
			l1.71-4.19c-0.57-0.57-0.92-1.46-1.05-2.67c0-0.44,0.19-0.67,0.57-0.67c0.19,0,0.35,0.16,0.48,0.48c0.25,0.95,0.92,1.57,2,1.86
			c1.08,0.29,2.24,0.52,3.48,0.71c1.24,0.19,2.36,0.46,3.38,0.81c1.01,0.35,1.59,1.06,1.71,2.14c0,0.32-0.03,1.08-0.09,2.29
			c-0.06,1.21-0.1,2.54-0.1,4c0,1.65,0.1,3.24,0.29,4.76c0.19,1.52,0.57,2.6,1.14,3.24c1.46-0.7,2.84-2.05,4.14-4.05
			c1.3-2,2.59-4.46,3.86-7.38c0.38-0.89,0.7-1.49,0.95-1.81c0.25-0.32,0.44-0.48,0.57-0.48c0.25,0,0.38,0.29,0.38,0.86
			c0,0.32-0.03,0.64-0.09,0.95c-0.06,0.32-0.16,0.64-0.29,0.95c-0.76,1.84-1.59,3.57-2.48,5.19c-0.89,1.62-1.84,3.03-2.86,4.24
			c-1.02,1.21-2.06,2.16-3.14,2.86c-1.08,0.7-2.19,1.05-3.33,1.05c-0.89,0-1.59-0.3-2.1-0.9c-0.51-0.6-0.9-1.38-1.19-2.33
			c-0.29-0.95-0.46-2.06-0.52-3.33c-0.06-1.27-0.1-2.57-0.1-3.91v-3.9c0-0.83-0.09-1.48-0.29-1.95s-0.46-0.82-0.81-1.05
			c-0.35-0.22-0.79-0.41-1.33-0.57c-0.54-0.16-1.13-0.37-1.76-0.62c-0.19,0.38-0.45,0.97-0.76,1.76
			C847.5,453.42,847.02,454.48,846.39,455.81z"/>
		<path fill="#FFFFFF" d="M902,455.62c0.38-0.89,0.7-1.49,0.95-1.81c0.25-0.32,0.44-0.48,0.57-0.48c0.25,0,0.38,0.29,0.38,0.86
			c0,0.32-0.03,0.64-0.1,0.95c-0.06,0.32-0.16,0.64-0.29,0.95c-1.65,3.94-3.59,7.19-5.81,9.76c-2.22,2.57-4.57,3.86-7.05,3.86
			c-0.83-0.06-1.51-0.49-2.05-1.29c-0.54-0.79-0.95-1.81-1.24-3.05c-0.29-1.24-0.49-2.6-0.62-4.1c-0.13-1.49-0.19-2.97-0.19-4.43
			c0-0.82-0.02-1.57-0.05-2.24c-0.03-0.67-0.05-1.25-0.05-1.76c0-1.33,0.17-2.3,0.52-2.9c0.35-0.6,1.19-0.91,2.52-0.91
			c0.51,0,0.97,0.05,1.38,0.14c0.41,0.09,0.62,0.24,0.62,0.43c-0.06,0.89-0.13,2-0.19,3.33c-0.06,1.33-0.09,2.73-0.09,4.19
			c0,1.08,0.03,2.16,0.09,3.24c0.06,1.08,0.16,2.08,0.29,3c0.13,0.92,0.33,1.73,0.62,2.43c0.29,0.7,0.62,1.24,1,1.62
			c1.52-0.76,3.03-2.19,4.52-4.29C899.26,461.05,900.67,458.54,902,455.62z M892.1,445.72c-0.13,0.32-0.43,0.56-0.91,0.71
			s-1,0.24-1.57,0.24c-0.83,0-1.51-0.11-2.05-0.33c-0.54-0.22-0.81-0.55-0.81-1c0.13-0.44,0.46-0.78,1-1
			c0.54-0.22,1.16-0.33,1.86-0.33c0.7,0,1.29,0.1,1.76,0.29c0.48,0.19,0.71,0.54,0.71,1.05V445.72z"/>
		<path fill="#FFFFFF" d="M926.57,462c0.32,0.89,0.86,1.89,1.62,3c0.76,1.11,1.68,1.76,2.76,1.95c1.78-0.25,3.6-1.24,5.48-2.95
			c1.87-1.71,3.7-4.48,5.48-8.29c0.7-1.52,1.21-2.29,1.52-2.29c0.19,0,0.29,0.25,0.29,0.76c0,0.32-0.03,0.65-0.1,1
			c-0.06,0.35-0.16,0.68-0.29,1c-1.14,2.54-2.27,4.62-3.38,6.24c-1.11,1.62-2.24,2.89-3.38,3.81s-2.29,1.56-3.43,1.9
			c-1.14,0.35-2.29,0.52-3.43,0.52c-2.99,0-5.22-1.05-6.71-3.14c-1.49-2.1-2.24-4.6-2.24-7.52c0-1.78,0.21-3.33,0.62-4.67
			c0.41-1.33,0.95-2.44,1.62-3.33c0.67-0.89,1.37-1.55,2.1-2c0.73-0.44,1.44-0.67,2.14-0.67c1.21,0,2.06,0.37,2.57,1.1
			c0.51,0.73,0.76,1.6,0.76,2.62c0,1.59-0.4,3.37-1.19,5.33C928.59,458.35,927.65,460.22,926.57,462z M928.76,451.24
			c0-0.32-0.09-0.67-0.29-1.05c-0.89,1.02-1.56,2.27-2,3.76c-0.45,1.49-0.67,2.78-0.67,3.86c0,0.32,0.01,0.64,0.05,0.95
			c0.03,0.32,0.08,0.64,0.14,0.95c0.76-1.46,1.41-2.95,1.95-4.48C928.49,453.72,928.76,452.38,928.76,451.24z"/>
		<path fill="#FFFFFF" d="M968.48,448.19c0.57,0.13,1.11,0.29,1.62,0.48c0.51,0.19,0.95,0.41,1.33,0.67
			c-0.25-2.29-0.45-4.63-0.57-7.05c-0.13-2.41-0.19-4.79-0.19-7.14c0-3.49,0.13-6.82,0.38-10c0.25-3.17,0.63-5.97,1.14-8.38
			c0.51-2.41,1.13-4.33,1.86-5.76c0.73-1.43,1.57-2.14,2.52-2.14c0.63,0,1.21,0.43,1.71,1.29c0.51,0.86,0.94,2.02,1.29,3.48
			c0.35,1.46,0.6,3.21,0.76,5.24c0.16,2.03,0.24,4.19,0.24,6.48c0,2.22-0.08,4.56-0.24,7c-0.16,2.45-0.4,4.91-0.71,7.38
			c-0.32,2.48-0.71,4.9-1.19,7.29c-0.48,2.38-1.03,4.62-1.67,6.71c0,0.95,0.14,2.08,0.43,3.38c0.29,1.3,0.65,2.57,1.09,3.81
			c0.44,1.24,0.92,2.33,1.43,3.29c0.51,0.95,1.01,1.59,1.52,1.91c1.27-0.63,2.56-1.82,3.86-3.57c1.3-1.75,2.59-4.05,3.86-6.9
			c0.38-0.89,0.7-1.49,0.95-1.81c0.25-0.32,0.44-0.48,0.57-0.48c0.25,0,0.38,0.29,0.38,0.86c0,0.32-0.03,0.64-0.1,0.95
			c-0.06,0.32-0.16,0.64-0.29,0.95c-1.59,3.75-3.38,6.73-5.38,8.95c-2,2.22-3.99,3.33-5.95,3.33c-1.4,0-2.52-0.62-3.38-1.86
			s-1.57-2.9-2.14-5c-1.08,1.84-2.24,3.3-3.48,4.38c-1.24,1.08-2.62,1.62-4.14,1.62c-1.02,0-1.89-0.27-2.62-0.81
			c-0.73-0.54-1.33-1.19-1.81-1.95c-0.48-0.76-0.83-1.59-1.05-2.48c-0.22-0.89-0.33-1.68-0.33-2.38c0-1.21,0.21-2.49,0.62-3.86
			c0.41-1.36,0.97-2.63,1.67-3.81c0.7-1.17,1.52-2.14,2.48-2.9c0.95-0.76,2-1.14,3.14-1.14H968.48z M971.52,450.57
			c-0.13-0.06-0.29-0.14-0.48-0.24c-0.19-0.1-0.41-0.17-0.67-0.24c-0.76,0.32-1.46,0.81-2.09,1.48c-0.64,0.67-1.18,1.44-1.62,2.33
			c-0.45,0.89-0.79,1.84-1.05,2.86c-0.25,1.02-0.38,2.03-0.38,3.05c0,1.27,0.22,2.4,0.67,3.38c0.44,0.99,1.14,1.73,2.09,2.24
			c0.95-0.51,1.89-1.33,2.81-2.48c0.92-1.14,1.63-2.44,2.14-3.91c-0.32-1.27-0.59-2.63-0.81-4.09
			C971.92,453.49,971.71,452.04,971.52,450.57z M976.29,449.62c1.02-4,1.75-8.13,2.19-12.38c0.44-4.25,0.67-8.22,0.67-11.9
			c0-2.73-0.11-5.16-0.33-7.29c-0.22-2.13-0.52-3.82-0.91-5.09c-0.76,1.9-1.33,4.79-1.71,8.67c-0.38,3.87-0.57,8.13-0.57,12.76
			c0,2.54,0.05,5.09,0.14,7.67C975.86,444.62,976.03,447.15,976.29,449.62z"/>
		<path fill="#FFFFFF" d="M1049.27,443.26c0.62,0.09,1.06,0.34,1.32,0.75c0.27,0.41,0.4,0.85,0.4,1.3c0,0.64-0.22,1.26-0.66,1.85
			c-0.44,0.6-1.01,0.89-1.72,0.89c-1.06,0-1.59-0.59-1.59-1.78c0-0.73,0.2-1.41,0.59-2.05
			C1048.01,443.58,1048.56,443.26,1049.27,443.26z M1049.41,460.11c0.62,0.09,1.06,0.34,1.32,0.75c0.27,0.41,0.4,0.85,0.4,1.3
			c0,0.64-0.22,1.26-0.66,1.85c-0.44,0.59-1.01,0.89-1.72,0.89c-1.06,0-1.59-0.59-1.59-1.78c0-0.73,0.2-1.42,0.59-2.05
			C1048.15,460.43,1048.7,460.11,1049.41,460.11z"/>
		<path fill="#FFFFFF" d="M1081.28,485.62c-0.63,0-0.95-0.29-0.95-0.86c0-0.38,0.13-0.67,0.38-0.86c1.14-0.95,2.13-2.44,2.95-4.48
			c0.82-2.03,1.52-4.43,2.09-7.19s1-5.78,1.29-9.05c0.29-3.27,0.43-6.62,0.43-10.05c0-3.49-0.16-6.98-0.48-10.47
			c-0.32-3.49-0.79-6.71-1.43-9.67c-0.63-2.95-1.43-5.57-2.38-7.86s-2.09-4-3.43-5.14c-0.19-0.19-0.29-0.38-0.29-0.57
			c0-0.44,0.32-0.67,0.95-0.67h0.29c1.84,1.65,3.46,3.73,4.86,6.24c1.4,2.51,2.55,5.32,3.48,8.43c0.92,3.11,1.62,6.4,2.09,9.86
			s0.71,6.94,0.71,10.43c0,3.43-0.22,6.81-0.67,10.14c-0.45,3.33-1.11,6.41-2,9.24c-0.89,2.83-2,5.32-3.33,7.48
			C1084.51,482.73,1082.99,484.41,1081.28,485.62z"/>
	</g>
	<g>
	</g>
	<g>
	</g>
	<g>
	</g>
	<g>
	</g>
	<g>
	</g>
</g>
</svg>
