<svg xmlns="http://www.w3.org/2000/svg" viewBox="0 0 234.75 68.4"><defs><style>.a{fill:#b9121b;}</style></defs><title>weddng-card</title><path d="M135.4,121.89a6.27,6.27,0,0,1-3.92-1.9,11.21,11.21,0,0,1-2.41-4.11,27.06,27.06,0,0,1-1.26-5.69q-.41-3.19-.54-6.69c-.1-2.33-.13-4.72-.11-7.17s0-4.79,0-7c0-1.11.24-1.66.73-1.66s.57.51.57,1.51q-.21,4.47-.21,8.5,0,5.12.39,9.32a40.69,40.69,0,0,0,1.26,7.24,12.76,12.76,0,0,0,2.31,4.75,4.92,4.92,0,0,0,3.6,1.87,7.79,7.79,0,0,0,5.21-2.08,22.24,22.24,0,0,0,4.4-5.4A46.77,46.77,0,0,0,148.9,106a76.74,76.74,0,0,0,2.6-8.1q1-4,1.65-7.56a43.56,43.56,0,0,0,.69-5.69,1.59,1.59,0,0,1,.28-1c.2-.21.36-.32.51-.32.38,0,.58.39.58,1.15v.43l-.36,2.45c-.2,2.07-.37,4.33-.51,6.81s-.22,5-.22,7.52.09,5,.26,7.42a40.74,40.74,0,0,0,.9,6.4A15.07,15.07,0,0,0,157,120a3.2,3.2,0,0,0,2.74,1.73c1,0,2.2-.61,3.71-2a22.22,22.22,0,0,0,4.57-7.09,6.59,6.59,0,0,1,.72-1.37c.19-.24.34-.36.43-.36s.29.21.29.65a3.51,3.51,0,0,1-.07.72,4,4,0,0,1-.22.72,43.84,43.84,0,0,1-2.09,3.88,19.74,19.74,0,0,1-2.3,3.17,11.36,11.36,0,0,1-2.55,2.16,5.62,5.62,0,0,1-2.92.79,3.65,3.65,0,0,1-3.1-1.76,14.31,14.31,0,0,1-1.94-4.64,40,40,0,0,1-1-6.59c-.19-2.47-.29-5-.29-7.6,0-1,0-2.1,0-3.13s.06-2,.11-3.06q-1.08,4.4-2.67,9a49.72,49.72,0,0,1-3.7,8.32,24.37,24.37,0,0,1-4.76,6.12,8.54,8.54,0,0,1-5.87,2.38,1.61,1.61,0,0,1-.39,0A2.11,2.11,0,0,0,135.4,121.89Z" transform="translate(-127.13 -77.47)"/><path d="M172.12,105.26a2.31,2.31,0,0,0-.21,1,6.38,6.38,0,0,0,.54,2.34,29,29,0,0,0,1.29,2.74c.51.93,1,1.87,1.62,2.8s1.11,1.84,1.59,2.7a3.9,3.9,0,0,1,.5,1.8,3.12,3.12,0,0,1-.86,2,8.86,8.86,0,0,0,4-3.06,20.5,20.5,0,0,0,2.73-5c.34-1,.68-1.44,1-1.44s.36.21.36.64a3.86,3.86,0,0,1-.21,1.16,18.61,18.61,0,0,1-2.38,4.75,11.63,11.63,0,0,1-3.13,3,13.46,13.46,0,0,1-4,1.65,31.61,31.61,0,0,1-4.79.76c-.72,0-1.08-.19-1.08-.58s.37-.43,1.12-.57,1.56-.33,2.44-.54a8.44,8.44,0,0,0,2.45-1,2.24,2.24,0,0,0,1.12-2,4.62,4.62,0,0,0-.65-2c-.43-.81-.94-1.7-1.51-2.66s-1.15-1.91-1.73-2.85a24.52,24.52,0,0,1-1.37-2.48c-.19.43-.39.95-.61,1.55s-.44,1.16-.68,1.69A12.29,12.29,0,0,1,169,113q-.31.54-.54.54c-.19,0-.29-.24-.29-.72a4.49,4.49,0,0,1,.26-1.29c.16-.53.36-1.08.57-1.66s.46-1.15.72-1.73a12.91,12.91,0,0,0,.61-1.51,2.59,2.59,0,0,1-.14-.58,2.17,2.17,0,0,1,.68-1.69,2,2,0,0,1,1-.61.44.44,0,0,1,.5.5,1.35,1.35,0,0,1-.07.44C172.29,104.83,172.22,105,172.12,105.26Z" transform="translate(-127.13 -77.47)"/><path d="M184.44,113c-.24.57-.46.86-.65.86h-.07c0,.58.12,1.21.21,1.91s.21,1.34.33,1.94a11.6,11.6,0,0,0,.39,1.51c.15.41.29.62.43.62a.22.22,0,0,0,.15-.08s.26-.56.79-1.54,1.16-2.08,1.91-3.28a28.94,28.94,0,0,1,2.34-3.28c.81-1,1.51-1.47,2.09-1.47.43,0,.76.59,1,1.76s.5,2.49.76,3.93.54,2.74.83,3.92.67,1.76,1.15,1.76a3,3,0,0,0,1.87-1.08,12.35,12.35,0,0,0,1.48-2c.65-1,1.27-2.11,1.87-3.24s1.14-2.12,1.62-3,.77-1.29.86-1.29.29.21.29.65a3.51,3.51,0,0,1-.07.72,4,4,0,0,1-.22.72A35.75,35.75,0,0,1,202,116.6a27.52,27.52,0,0,1-2,3.17,13,13,0,0,1-2.08,2.27,3.22,3.22,0,0,1-2,.86c-.87,0-1.5-.57-1.91-1.73a19,19,0,0,1-.9-3.78c-.19-1.36-.35-2.62-.47-3.78s-.35-1.72-.68-1.72-.74.27-1.19.82a20.77,20.77,0,0,0-1.48,2.09c-.53.84-1,1.74-1.55,2.7s-1,1.86-1.36,2.7-.86,1.81-1.34,2.92l-.07-.07h-.07c-.48,0-.91-.74-1.3-2.2a43.17,43.17,0,0,1-1-5.58c-.26-2.26-.47-4.74-.61-7.45s-.22-5.32-.22-7.81q0-4.32.33-8.39a52.68,52.68,0,0,1,1-7.2,19.12,19.12,0,0,1,1.72-5,3,3,0,0,1,2.56-1.91,2.29,2.29,0,0,1,2.27,1.76,13.93,13.93,0,0,1,.61,4.5,49.3,49.3,0,0,1-.76,8.14c-.5,3-1,5.88-1.54,8.57,0,0-.11.49-.33,1.33s-.48,1.88-.79,3.13-.68,2.59-1.12,4S184.92,111.72,184.44,113Zm1-32.3a20.28,20.28,0,0,0-1.4,4.86,67.87,67.87,0,0,0-.83,6.92q-.28,3.89-.29,8.06,0,3,.15,6c.09,2,.24,3.86.43,5.68l.14-.28c1-2.93,1.76-5.5,2.38-7.71.34-1.25.65-2.4.94-3.45q1.22-6,1.65-9.9a60.21,60.21,0,0,0,.43-6.38,16.37,16.37,0,0,0-.25-3.31,7.29,7.29,0,0,0-.54-1.69,1.28,1.28,0,0,0-.72-.68C186.72,78.81,186,79.45,185.44,80.67Z" transform="translate(-127.13 -77.47)"/><path d="M211.36,105.84a6.52,6.52,0,0,0-.07,1v1a1.77,1.77,0,0,1,.65,1.08c0,.1-.07.15-.22.15a.66.66,0,0,1-.43-.22c0,.39,0,.82,0,1.3s0,.93,0,1.36c0,1.35,0,2.61.11,3.78a23,23,0,0,0,.36,3.06,6.61,6.61,0,0,0,.68,2.06,1.3,1.3,0,0,0,1.15.75c1.11,0,2.28-.75,3.53-2.27a26.26,26.26,0,0,0,3.6-6.22,6.59,6.59,0,0,1,.72-1.37c.19-.24.34-.36.43-.36s.29.21.29.65a3.51,3.51,0,0,1-.07.72,4,4,0,0,1-.22.72,33,33,0,0,1-3.74,6.76,5.62,5.62,0,0,1-4.54,2.6,2.52,2.52,0,0,1-2.41-1.62,12.57,12.57,0,0,1-1-4.22,10.38,10.38,0,0,1-1.62,3.71,3.8,3.8,0,0,1-3.28,1.55,3,3,0,0,1-2.77-1.26,5.75,5.75,0,0,1-.76-3,12.54,12.54,0,0,1,.65-4,13.15,13.15,0,0,1,1.66-3.38,9.57,9.57,0,0,1,2.27-2.34,4.36,4.36,0,0,1,2.55-.9h.29l1,.21v-1.22a.49.49,0,0,1,.21-.43.78.78,0,0,1,.44-.15Q211.36,105.33,211.36,105.84Zm-6.91,14.47a2.19,2.19,0,0,0,1.08.29,2.29,2.29,0,0,0,1.84-1,9.05,9.05,0,0,0,1.29-2.49,18.17,18.17,0,0,0,.83-3.38c.19-1.25.34-2.47.43-3.67l.15-1.88a2,2,0,0,0-.69-.14h-.75a3.8,3.8,0,0,0-2.16,1,8.53,8.53,0,0,0-1.87,2.23,13.92,13.92,0,0,0-1.3,2.88,9.41,9.41,0,0,0-.51,2.92,4.64,4.64,0,0,0,.4,1.94A2.65,2.65,0,0,0,204.45,120.31Z" transform="translate(-127.13 -77.47)"/><path d="M281.17,122.61a13.62,13.62,0,0,0,10.29-4c0-1.82,0-3.69,0-5.61s-.06-3.8-.1-5.62l-3.75.43c-.38,0-.57-.17-.57-.5s.14-.63.43-.72l4.17-.43h.22c.43,0,.65.14.65.43q0,1,0,2.88c0,1.25.05,2.65.08,4.21s0,3.19.07,4.9,0,3.32,0,4.86v2.8a67.67,67.67,0,0,0,4.76-6.66q1.72-2.83,2.7-4.71c.64-1.25,1.11-2.19,1.4-2.81s.55-.94.79-.94.22.22.22.65a2.78,2.78,0,0,1-.22,1.15,35.92,35.92,0,0,1-4.17,7.89q-2.6,3.7-5.55,7.38c-.09,2.25-.23,4.44-.39,6.55a35.41,35.41,0,0,1-.87,5.65,11.14,11.14,0,0,1-1.73,4,3.38,3.38,0,0,1-2.84,1.51,4.08,4.08,0,0,1-2.84-1,3.47,3.47,0,0,1-1.12-2.73,10.23,10.23,0,0,1,1.22-4.36,31.83,31.83,0,0,1,4.11-5.94l3.24-4v-2.09c0-.77,0-1.63,0-2.59s0-2,0-3a15.06,15.06,0,0,1-10.29,3.74,12,12,0,0,1-5.73-1.37,12.8,12.8,0,0,1-4.32-3.78,18.32,18.32,0,0,1-2.74-5.76,26.11,26.11,0,0,1-1-7.23,30.16,30.16,0,0,1,1.19-8.61,25.33,25.33,0,0,1,3.2-7,16.88,16.88,0,0,1,4.65-4.72,9.77,9.77,0,0,1,5.43-1.73,11.88,11.88,0,0,1,1.7.33,13.9,13.9,0,0,1,3,1.08,11,11,0,0,1,2.85,1.94,3.77,3.77,0,0,1,1.26,2.85c0,.33-.15.5-.43.5a.59.59,0,0,1-.29-.07,13.08,13.08,0,0,0-3.6-3.82,7.72,7.72,0,0,0-4.47-1.44,8.79,8.79,0,0,0-5,1.59A15.63,15.63,0,0,0,272.67,91a22.93,22.93,0,0,0-3,6.44,27.88,27.88,0,0,0-1.12,8,28.43,28.43,0,0,0,.65,6,16.71,16.71,0,0,0,2.16,5.4,12.59,12.59,0,0,0,3.93,4A12,12,0,0,0,281.17,122.61Zm4.46,21.68a3.75,3.75,0,0,0,1.15.21q2.31,0,3.31-4a52.51,52.51,0,0,0,1.23-10.73l-2.16,2.74a35,35,0,0,0-3.89,5.76,8.89,8.89,0,0,0-1.15,3.67A2.25,2.25,0,0,0,285.63,144.29Z" transform="translate(-127.13 -77.47)"/><path d="M302.84,111c0,1.11-.1,2.1-.15,3s-.07,1.74-.07,2.56a13.1,13.1,0,0,0,.43,3.85,1.74,1.74,0,0,0,1.8,1.33,3.32,3.32,0,0,0,2.67-1.51,16.3,16.3,0,0,0,2-3.53,23.35,23.35,0,0,0,1.26-4.1,17.86,17.86,0,0,0,.43-3.17.48.48,0,0,1,.21-.43.78.78,0,0,1,.44-.15.51.51,0,0,1,.57.58q-.21,1.94-.36,3.78c-.09,1.22-.14,2.39-.14,3.49a13.59,13.59,0,0,0,.54,4.21,2,2,0,0,0,2,1.62,3.45,3.45,0,0,0,2.12-.79,10.44,10.44,0,0,0,2.05-2.16,23.72,23.72,0,0,0,1.95-3.17q.93-1.8,1.8-3.81a6.59,6.59,0,0,1,.72-1.37c.19-.24.33-.36.43-.36s.29.21.29.65a4.39,4.39,0,0,1-.07.72,4,4,0,0,1-.22.72c-.58,1.39-1.21,2.73-1.91,4a25.85,25.85,0,0,1-2.16,3.42,10.46,10.46,0,0,1-2.37,2.34,4.54,4.54,0,0,1-2.56.86,3.32,3.32,0,0,1-2-.54,3.39,3.39,0,0,1-1.15-1.47,7.63,7.63,0,0,1-.54-2.2,22.88,22.88,0,0,1-.15-2.7,13.66,13.66,0,0,1-2.52,4.43,4.38,4.38,0,0,1-3.31,1.69,2.8,2.8,0,0,1-1.73-.5,3.64,3.64,0,0,1-1-1.37,6.25,6.25,0,0,1-.5-2,22.12,22.12,0,0,1-.11-2.34v-2.09c0-1,0-1.87.11-2.74s.3-1.29.68-1.29S302.84,110.69,302.84,111Z" transform="translate(-127.13 -77.47)"/><path d="M323.79,119.73l.07.15h.07a.23.23,0,0,0,.22-.15l.83-1.9c.5-1.18,1.09-2.45,1.76-3.82a29.4,29.4,0,0,1,2.16-3.74c.77-1.13,1.46-1.7,2.09-1.7.29,0,.54.33.75,1a16.47,16.47,0,0,1,.58,2.41c.17,1,.32,2,.47,3.17s.31,2.2.5,3.16a11.49,11.49,0,0,0,.72,2.42c.29.64.65,1,1.08,1a4.58,4.58,0,0,0,3.89-2.49,54.53,54.53,0,0,0,3.46-6.58,5.74,5.74,0,0,1,.72-1.37c.19-.24.33-.36.43-.36s.29.21.29.65a3.53,3.53,0,0,1-.08.72,4.89,4.89,0,0,1-.21.72c-.58,1.39-1.18,2.68-1.8,3.88a25.23,25.23,0,0,1-1.91,3.14,9,9,0,0,1-2.05,2.08,4,4,0,0,1-2.38.76,2.35,2.35,0,0,1-1.91-.94,6.84,6.84,0,0,1-1.18-2.3,17.06,17.06,0,0,1-.65-3q-.22-1.66-.36-3c-.1-.91-.19-1.68-.29-2.3s-.24-.94-.43-.94-.7.45-1.23,1.33-1,1.91-1.58,3.06-1.06,2.31-1.58,3.46-.94,2-1.23,2.52a4.37,4.37,0,0,1-.93,1.19,1.38,1.38,0,0,1-.8.25c-.43,0-.63-.19-.61-.58s0-.74,0-1.08c0-1.53,0-3.24.07-5.11s.11-3.61.18-5.22.18-3,.32-4,.31-1.62.51-1.62a.66.66,0,0,1,.5.22.58.58,0,0,1,.22.43c-.1,1.2-.18,2.27-.25,3.2s-.14,1.84-.18,2.7-.1,1.74-.15,2.63-.1,1.86-.14,2.92Z" transform="translate(-127.13 -77.47)"/><path d="M351.15,105.84a6.52,6.52,0,0,0-.07,1v1a1.75,1.75,0,0,1,.64,1.08q0,.15-.21.15a.62.62,0,0,1-.43-.22c0,.38,0,.82,0,1.3s0,.93,0,1.36c0,1.35,0,2.61.11,3.78a23,23,0,0,0,.36,3.06,6.86,6.86,0,0,0,.69,2.06,1.29,1.29,0,0,0,1.15.75c1.1,0,2.28-.75,3.52-2.27a26.26,26.26,0,0,0,3.6-6.22,6.05,6.05,0,0,1,.73-1.37c.19-.24.33-.36.43-.36s.28.21.28.65a3.51,3.51,0,0,1-.07.72,4.89,4.89,0,0,1-.21.72,33,33,0,0,1-3.75,6.76,5.6,5.6,0,0,1-4.53,2.6,2.53,2.53,0,0,1-2.42-1.62,12.81,12.81,0,0,1-1-4.22,10,10,0,0,1-1.62,3.71,3.77,3.77,0,0,1-3.27,1.55,3,3,0,0,1-2.78-1.26,5.75,5.75,0,0,1-.75-3,12.26,12.26,0,0,1,.65-4,13.13,13.13,0,0,1,1.65-3.38,9.57,9.57,0,0,1,2.27-2.34,4.36,4.36,0,0,1,2.56-.9h.29l1,.21v-1.22a.49.49,0,0,1,.22-.43.75.75,0,0,1,.43-.15C351,105.33,351.15,105.5,351.15,105.84Zm-6.91,14.47a2.13,2.13,0,0,0,1.08.29,2.26,2.26,0,0,0,1.83-1,8.8,8.8,0,0,0,1.3-2.49,19,19,0,0,0,.83-3.38c.19-1.25.33-2.47.43-3.67l.14-1.88a2,2,0,0,0-.68-.14h-.76a3.8,3.8,0,0,0-2.16,1,8.73,8.73,0,0,0-1.87,2.23,14.46,14.46,0,0,0-1.3,2.88,9.68,9.68,0,0,0-.5,2.92A4.64,4.64,0,0,0,343,119,2.67,2.67,0,0,0,344.24,120.31Z" transform="translate(-127.13 -77.47)"/><path class="a" d="M260.4,102a3.07,3.07,0,0,0-.06-.68,3.93,3.93,0,0,0-.2-.64,2.94,2.94,0,0,0-.27-.53s0,0,0,0a.23.23,0,0,0-.06-.18.23.23,0,0,0-.11-.08l-.09,0a1.73,1.73,0,0,0-.25-.21,2.69,2.69,0,0,0-.29-.16l-.06,0-.3-.08a4.52,4.52,0,0,0-.63-.08h-.72l-.47,0-.42,0-.41,0-.5.07c-.11,0-.21,0-.32.06l-.3.06a5.8,5.8,0,0,0-.63.2l-.27.13-.05,0-.06-.21c0-.15-.07-.3-.12-.44a2.13,2.13,0,0,0-.11-.33c-.05-.11-.11-.21-.17-.32a2,2,0,0,0-.47-.49,2.74,2.74,0,0,0-.59-.36l-.15-.06a5,5,0,0,0-.52-.14,3.56,3.56,0,0,0-.65,0,3.24,3.24,0,0,0-1.36.29q-.28.12-.57.27a3.3,3.3,0,0,0-.57.41,2.31,2.31,0,0,0-.45.54,3.78,3.78,0,0,0-.17.35,2.52,2.52,0,0,0-.12.39,2.28,2.28,0,0,0,0,.69,2.93,2.93,0,0,0,.18.66,6.19,6.19,0,0,0,.28.58c.13.22.27.44.42.65l.26.36.28.35c.38.47.77.93,1.16,1.39.17.2.34.39.52.58a7.11,7.11,0,0,1,.7.86,2.23,2.23,0,0,1,.21.44,4.64,4.64,0,0,1,.11.51l0,.13a.85.85,0,0,1,0,.23.47.47,0,0,0,.06.15l0,.08a.32.32,0,0,0,.12.37.35.35,0,0,0,.24.06.36.36,0,0,0,.21-.13l.22-.35.12-.19a2.7,2.7,0,0,1,.25-.34,2.61,2.61,0,0,1,.44-.37l.22-.15.33-.2.19-.1.26-.13.16-.07a1.76,1.76,0,0,1,.2-.09l.41-.18.25-.09.26-.09.2-.06.18,0,.44-.1.95-.2.16,0,.27-.07.23-.07.31-.11a3.25,3.25,0,0,0,.57-.33,3,3,0,0,0,.5-.45,1,1,0,0,0,.17-.24,1.58,1.58,0,0,0,.16-.35,5.09,5.09,0,0,0,.18-.67A4.2,4.2,0,0,0,260.4,102Zm-11.58-2.55a1.85,1.85,0,0,1,.25-.37,2.42,2.42,0,0,1,.44-.35,4,4,0,0,1,.91-.42,3.14,3.14,0,0,1,.68-.13,3.25,3.25,0,0,1,.76.06,2.58,2.58,0,0,1,.53.19,2.44,2.44,0,0,1,.33.23l-.17,0-.41.09-.42.11-.53.14-.35.11-.57.18-.86.28-.74.24h0A1.66,1.66,0,0,1,248.82,99.41Zm-.1,1.14c0-.08,0-.16-.05-.23l1.64-.55.92-.28.38-.11.41-.11.51-.1.28,0,.11,0,.06,0,.08,0,0,0a.83.83,0,0,1,.07.13l.08.21c0,.1,0,.21.08.32h0l-.22.06a2.62,2.62,0,0,0-.38.09l-.43.11-.52.14-.76.23-.9.26-.41.12-.34.09-.23,0-.11,0a.16.16,0,0,0-.09,0h-.06Zm.73,1.32c-.09-.12-.18-.25-.26-.38s-.12-.2-.18-.3l.2,0,.33-.08.28-.07.49-.14.81-.22.93-.25.87-.21.33-.07h.05a.11.11,0,0,0,.12,0h0l.06.2,0,.08a.53.53,0,0,0,.1.12l0,0a.15.15,0,0,0,.2.06.12.12,0,0,0,.07-.07.22.22,0,0,0,.1-.09.27.27,0,0,0,.05-.23v0a2.83,2.83,0,0,1,.53-.23,7,7,0,0,1,1-.21l.14,0,.28,0,.29,0,.4,0h1l.38,0,.42.07a.9.9,0,0,1,.22.06.85.85,0,0,1,.22.09l-.17,0c-.3,0-.59.09-.88.15l-.92.19-1,.2-.91.21-.88.21-.87.23-.88.26-.84.26-.81.25c-.36.11-.73.23-1.09.36h0l-.16-.2Zm4.16,3.79c-.09,0-.16.11-.24.16l-.29.2a2.26,2.26,0,0,0-.29.25s0-.1,0-.14l-.09-.28h.06l.62-.16.28-.06.1,0Zm5.94-2.39a1.44,1.44,0,0,1-.18.25,2.74,2.74,0,0,1-.5.4,2.69,2.69,0,0,1-.6.27l-.56.15-.45.09-.44.09-.44.09a7.81,7.81,0,0,0-.95.25.24.24,0,0,0-.12-.07l-.07,0a5,5,0,0,0-.54.07c-.16,0-.31.06-.47.09l-.41.08-.38.08-.67.17-.31.07-.08,0-.15-.22-.19-.23.68-.16.69-.16,1.19-.25.71-.14.83-.16.94-.17.46-.07.47-.06.43-.07.49-.09.12,0a1,1,0,0,0,.29-.09.29.29,0,0,0,.15-.16.3.3,0,0,0,0-.23.26.26,0,0,0-.17-.15.31.31,0,0,0-.19,0l-.49.11-.41.08c-.29.05-.58.09-.86.15l-.93.17-.82.16-.91.19-1,.24-.67.15-1.1.26-.24.06-.19-.21-.52-.59.9-.21.72-.17,1.91-.44.82-.18.89-.18.95-.17,1-.17.73-.13.18,0a.24.24,0,0,0,.27,0l.16-.09.17-.09h0a.24.24,0,0,0,.11-.09.27.27,0,0,0,0-.23h0a.35.35,0,0,0-.06-.14.38.38,0,0,0-.13-.09l-.08,0a1.47,1.47,0,0,0-.29,0l-.21,0-.47.1-.89.17-.92.17-.38.07-.44.09-.94.2-1,.23-1.67.39-.78.19-1,.24-.23-.28-.3-.35-.06-.08.31-.1.36-.11.47-.14.82-.24.47-.14.45-.13.39-.1.5-.13.38-.09.5-.11.39-.09.5-.1c.6-.13,1.21-.24,1.81-.36l.39-.07.4-.07.93-.14.33,0h.05a3.22,3.22,0,0,1,.31.68,3.07,3.07,0,0,1,.14.67,3.46,3.46,0,0,1-.09.85A3,3,0,0,1,259.55,103.27Z" transform="translate(-127.13 -77.47)"/><path class="a" d="M245.42,115.84l.88-1c.29-.36.6-.71.88-1.08l.21-.27a1.77,1.77,0,0,0,.16-.22c.08-.1.15-.21.22-.31s.1-.14.14-.21.26-.42.37-.63a8,8,0,0,0,.75-1.85c0-.15.06-.3.08-.44s.06-.42.08-.63a4.93,4.93,0,0,0-.09-1.08c0-.14-.06-.28-.09-.42a3.85,3.85,0,0,0-.2-.57,4.28,4.28,0,0,0-.54-.86,3,3,0,0,0-.73-.68,4.13,4.13,0,0,0-.89-.45,5,5,0,0,0-1-.23l-.41,0a4.36,4.36,0,0,0-.51,0,6,6,0,0,0-1,.22,4.29,4.29,0,0,0-.89.43c-.15.1-.29.21-.43.32l-.35.32a6.67,6.67,0,0,0-.62.68,7.8,7.8,0,0,0-.88,1.37c-.11.21-.2.43-.29.65l-.07-.15a3.19,3.19,0,0,0-.3-.42c-.09-.13-.2-.24-.3-.36l-.38-.43-.31-.33a4.88,4.88,0,0,0-.75-.61,5.35,5.35,0,0,0-.78-.43,4.65,4.65,0,0,0-1-.34,5.58,5.58,0,0,0-.57-.08,3.55,3.55,0,0,0-.46,0h0a6.13,6.13,0,0,0-1.05.11,3.9,3.9,0,0,0-.89.24,8.1,8.1,0,0,0-.93.47,5.69,5.69,0,0,0-.84.62,5,5,0,0,0-.69.76,4.43,4.43,0,0,0-.49.91,3.78,3.78,0,0,0-.24.83,3.9,3.9,0,0,0-.06,1.08,4,4,0,0,0,.22,1,7,7,0,0,0,.94,1.68,8.7,8.7,0,0,0,.68.8l.3.29a3.45,3.45,0,0,0,.28.26l.21.19.37.3.28.21.23.16.3.2c.34.22.69.43,1,.64l2.26,1.36c.71.43,1.43.85,2.12,1.31l1.07.74.55.39.45.31.38.23.35.2a.64.64,0,0,0,.76-.1.62.62,0,0,0,.17-.28l0-.15a.59.59,0,0,0,.11-.32c0-.15,0-.29,0-.44a3.5,3.5,0,0,1,.13-.56,4.93,4.93,0,0,1,.19-.54c.16-.34.34-.67.53-1,.09-.17.2-.33.31-.5s.2-.28.3-.42Zm-1-.8c-.13.17-.27.34-.4.52s-.25.32-.36.5-.25.37-.36.56-.21.38-.31.57-.19.37-.27.56-.21.46-.29.7-.13.42-.18.63c0,0,0,.06,0,.08l-.12-.1-.37-.29-.25-.19-.48-.35-.53-.38-.53-.35-1.2-.71c-.18-.11-.37-.21-.56-.31l-.57-.32-1-.58-1.08-.61c-.18-.11-.38-.21-.56-.33s-.36-.21-.53-.33L234,114l-.48-.41-.32-.29c-.13-.12-.24-.24-.36-.37l-.3-.35a6.25,6.25,0,0,1-.7-1.17,3.4,3.4,0,0,1-.2-.71,3.88,3.88,0,0,1,0-.68,4,4,0,0,1,.21-.77,3.81,3.81,0,0,1,.38-.65,4.06,4.06,0,0,1,.66-.65,6.06,6.06,0,0,1,.53-.35,6.45,6.45,0,0,1,.58-.31,5.38,5.38,0,0,1,1.18-.3,5.15,5.15,0,0,1,1.11,0,4.38,4.38,0,0,1,1,.28,5.16,5.16,0,0,1,1,.55l.61.52.25.23a4.47,4.47,0,0,1,.43.44,3,3,0,0,1,.32.58,1.34,1.34,0,0,0,.07.18.49.49,0,0,0,.06.39.54.54,0,0,0,.32.25.56.56,0,0,0,.42,0l.11-.09A.57.57,0,0,0,241,110c.11-.29.21-.59.33-.88a7.15,7.15,0,0,1,.83-1.41,6.21,6.21,0,0,1,1-1,3.11,3.11,0,0,1,.65-.39,4.59,4.59,0,0,1,.88-.24,3.84,3.84,0,0,1,.83,0,3.49,3.49,0,0,1,.72.2,3.42,3.42,0,0,1,.62.35,2.67,2.67,0,0,1,.37.38,3.93,3.93,0,0,1,.35.6,3.64,3.64,0,0,1,.19,1.63,6.15,6.15,0,0,1-.38,1.38,11.37,11.37,0,0,1-.55,1l-.18.31-.15.23-.19.3-.18.24c-.13.18-.26.36-.4.53l-.07.09Z" transform="translate(-127.13 -77.47)"/><path d="M137.08,134.27c8.72-.65,17.45-1.22,26.19-1.76s17.47-1,26.21-1.38c17.49-.79,35-1.31,52.5-1.42,4.38,0,8.75,0,13.13.13l6.57.17,6.56.31q13.13.78,26.18,2.08c17.42,1.71,34.8,3.94,52.05,6.88-8.65-1.32-17.33-2.42-26-3.42s-17.39-1.93-26.1-2.7-17.43-1.46-26.16-1.93l-6.54-.29-6.56-.14c-4.37-.11-8.74-.07-13.11-.09-17.49,0-35,.56-52.46,1.19q-13.12.48-26.23,1.09T137.08,134.27Z" transform="translate(-127.13 -77.47)"/></svg>